<svg xmlns="http://www.w3.org/2000/svg" xmlns:xlink="http://www.w3.org/1999/xlink" width="500" zoomAndPan="magnify" viewBox="0 0 375 374.999991" height="500" preserveAspectRatio="xMidYMid meet" version="1.0"><defs><g/><clipPath id="651478e59b"><path d="M 129.234375 91.128906 L 256.511719 91.128906 L 256.511719 286.128906 L 129.234375 286.128906 Z M 129.234375 91.128906 " clip-rule="nonzero"/></clipPath></defs><g fill="#975c8d" fill-opacity="1"><g transform="translate(47.791524, 174.40924)"><g><path d="M 17.75 0.796875 L 21.953125 0.9375 L 21.375 19.28125 L 17.171875 19.140625 L 17.375 12.4375 L -0.375 11.890625 L -0.21875 6.9375 L 17.53125 7.484375 Z M 17.75 0.796875 "/></g></g></g><g fill="#975c8d" fill-opacity="1"><g transform="translate(47.269034, 198.750738)"><g><path d="M 0.375 2.390625 L 22.078125 -1.015625 L 22.84375 3.875 L 13.78125 5.296875 L 15.328125 15.125 L 24.390625 13.703125 L 25.15625 18.609375 L 3.453125 22.015625 L 2.6875 17.109375 L 11.234375 15.765625 L 9.6875 5.9375 L 1.140625 7.28125 Z M 0.375 2.390625 "/></g></g></g><g fill="#975c8d" fill-opacity="1"><g transform="translate(52.851762, 228.028306)"><g><path d="M 0.734375 2.3125 L 21.65625 -4.390625 L 23.171875 0.328125 L 2.25 7.03125 Z M 0.734375 2.3125 "/></g></g></g><g fill="#975c8d" fill-opacity="1"><g transform="translate(57.368805, 242.158654)"><g><path d="M 21.578125 8.375 C 21.710938 7.070312 21.691406 5.757812 21.515625 4.4375 C 21.335938 3.113281 21.054688 2.046875 20.671875 1.234375 C 20.296875 0.453125 19.851562 -0.09375 19.34375 -0.40625 C 18.84375 -0.71875 18.320312 -0.742188 17.78125 -0.484375 C 17.082031 -0.148438 16.707031 0.425781 16.65625 1.25 C 16.601562 2.082031 16.703125 3.273438 16.953125 4.828125 C 17.203125 6.378906 17.335938 7.6875 17.359375 8.75 C 17.390625 9.8125 17.15625 10.84375 16.65625 11.84375 C 16.164062 12.84375 15.273438 13.65625 13.984375 14.28125 C 12.710938 14.882812 11.457031 15.070312 10.21875 14.84375 C 8.976562 14.613281 7.84375 14.023438 6.8125 13.078125 C 5.789062 12.140625 4.921875 10.925781 4.203125 9.4375 C 3.441406 7.832031 2.972656 6.117188 2.796875 4.296875 C 2.617188 2.484375 2.75 0.773438 3.1875 -0.828125 L 7.6875 -0.78125 C 7.257812 0.644531 7.082031 2.140625 7.15625 3.703125 C 7.238281 5.265625 7.535156 6.585938 8.046875 7.671875 C 8.484375 8.585938 8.992188 9.222656 9.578125 9.578125 C 10.171875 9.929688 10.789062 9.953125 11.4375 9.640625 C 11.945312 9.398438 12.28125 9.023438 12.4375 8.515625 C 12.601562 8.015625 12.660156 7.445312 12.609375 6.8125 C 12.566406 6.175781 12.445312 5.320312 12.25 4.25 C 11.988281 2.71875 11.835938 1.429688 11.796875 0.390625 C 11.765625 -0.648438 11.984375 -1.664062 12.453125 -2.65625 C 12.929688 -3.65625 13.816406 -4.460938 15.109375 -5.078125 C 16.296875 -5.648438 17.488281 -5.828125 18.6875 -5.609375 C 19.894531 -5.398438 21.015625 -4.832031 22.046875 -3.90625 C 23.085938 -2.988281 23.972656 -1.765625 24.703125 -0.234375 C 25.347656 1.117188 25.785156 2.550781 26.015625 4.0625 C 26.242188 5.570312 26.28125 7 26.125 8.34375 Z M 21.578125 8.375 "/></g></g></g><g fill="#975c8d" fill-opacity="1"><g transform="translate(68.757156, 264.315363)"><g/></g></g><g fill="#975c8d" fill-opacity="1"><g transform="translate(76.047181, 275.688287)"><g><path d="M 23.421875 3.890625 C 23.597656 2.734375 23.546875 1.601562 23.265625 0.5 C 22.992188 -0.59375 22.519531 -1.53125 21.84375 -2.3125 C 21.039062 -3.226562 20.070312 -3.875 18.9375 -4.25 C 17.800781 -4.625 16.644531 -4.6875 15.46875 -4.4375 C 14.300781 -4.1875 13.238281 -3.644531 12.28125 -2.8125 C 11.3125 -1.96875 10.617188 -0.984375 10.203125 0.140625 C 9.796875 1.265625 9.695312 2.421875 9.90625 3.609375 C 10.113281 4.796875 10.617188 5.847656 11.421875 6.765625 C 12.078125 7.515625 12.910156 8.113281 13.921875 8.5625 C 14.941406 9.007812 16.019531 9.273438 17.15625 9.359375 L 16.671875 13.640625 C 14.984375 13.554688 13.351562 13.148438 11.78125 12.421875 C 10.207031 11.703125 8.898438 10.738281 7.859375 9.53125 C 6.441406 7.90625 5.53125 6.101562 5.125 4.125 C 4.71875 2.15625 4.835938 0.222656 5.484375 -1.671875 C 6.140625 -3.566406 7.269531 -5.210938 8.875 -6.609375 C 10.46875 -8.003906 12.25 -8.878906 14.21875 -9.234375 C 16.1875 -9.585938 18.128906 -9.410156 20.046875 -8.703125 C 21.960938 -8.003906 23.632812 -6.835938 25.0625 -5.203125 C 26.113281 -3.992188 26.894531 -2.585938 27.40625 -0.984375 C 27.925781 0.609375 28.117188 2.179688 27.984375 3.734375 Z M 23.421875 3.890625 "/></g></g></g><g fill="#975c8d" fill-opacity="1"><g transform="translate(94.320455, 296.073768)"><g><path d="M 23.609375 -10.015625 C 25.347656 -8.671875 26.628906 -7.0625 27.453125 -5.1875 C 28.285156 -3.3125 28.585938 -1.378906 28.359375 0.609375 C 28.140625 2.609375 27.382812 4.453125 26.09375 6.140625 C 24.800781 7.816406 23.21875 9.023438 21.34375 9.765625 C 19.46875 10.515625 17.515625 10.734375 15.484375 10.421875 C 13.453125 10.117188 11.566406 9.296875 9.828125 7.953125 C 8.085938 6.617188 6.804688 5.007812 5.984375 3.125 C 5.160156 1.25 4.859375 -0.6875 5.078125 -2.6875 C 5.304688 -4.6875 6.070312 -6.53125 7.375 -8.21875 C 8.664062 -9.90625 10.242188 -11.113281 12.109375 -11.84375 C 13.984375 -12.582031 15.925781 -12.796875 17.9375 -12.484375 C 19.957031 -12.179688 21.847656 -11.359375 23.609375 -10.015625 Z M 21.015625 -6.53125 C 20.054688 -7.269531 18.972656 -7.710938 17.765625 -7.859375 C 16.566406 -8.003906 15.398438 -7.835938 14.265625 -7.359375 C 13.140625 -6.878906 12.191406 -6.132812 11.421875 -5.125 C 10.628906 -4.09375 10.148438 -2.96875 9.984375 -1.75 C 9.816406 -0.53125 9.953125 0.640625 10.390625 1.765625 C 10.835938 2.898438 11.539062 3.835938 12.5 4.578125 C 13.46875 5.316406 14.539062 5.75 15.71875 5.875 C 16.894531 6 18.046875 5.816406 19.171875 5.328125 C 20.304688 4.835938 21.269531 4.078125 22.0625 3.046875 C 22.832031 2.035156 23.304688 0.925781 23.484375 -0.28125 C 23.660156 -1.5 23.535156 -2.660156 23.109375 -3.765625 C 22.679688 -4.867188 21.984375 -5.789062 21.015625 -6.53125 Z M 21.015625 -6.53125 "/></g></g></g><g fill="#975c8d" fill-opacity="1"><g transform="translate(119.27023, 314.362833)"><g><path d="M 10.234375 -5.140625 C 9.554688 -3.734375 9.414062 -2.425781 9.8125 -1.21875 C 10.21875 -0.0195312 11.09375 0.898438 12.4375 1.546875 C 13.738281 2.171875 14.96875 2.257812 16.125 1.8125 C 17.289062 1.375 18.21875 0.441406 18.90625 -0.984375 L 24.484375 -12.625 L 28.96875 -10.46875 L 23.390625 1.171875 C 22.554688 2.898438 21.476562 4.234375 20.15625 5.171875 C 18.84375 6.109375 17.359375 6.601562 15.703125 6.65625 C 14.046875 6.707031 12.320312 6.300781 10.53125 5.4375 C 8.738281 4.582031 7.335938 3.488281 6.328125 2.15625 C 5.328125 0.820312 4.773438 -0.648438 4.671875 -2.265625 C 4.566406 -3.878906 4.929688 -5.550781 5.765625 -7.28125 L 11.34375 -18.921875 L 15.8125 -16.78125 Z M 10.234375 -5.140625 "/></g></g></g><g fill="#975c8d" fill-opacity="1"><g transform="translate(145.712043, 326.217812)"><g><path d="M 2.328125 0.640625 L 8.1875 -20.53125 L 12.96875 -19.203125 L 8.265625 -2.203125 L 17.328125 0.296875 L 16.171875 4.46875 Z M 2.328125 0.640625 "/></g></g></g><g fill="#975c8d" fill-opacity="1"><g transform="translate(167.669698, 332.107008)"><g><path d="M 13.671875 -20.8125 C 15.898438 -20.613281 17.847656 -19.96875 19.515625 -18.875 C 21.179688 -17.789062 22.421875 -16.375 23.234375 -14.625 C 24.054688 -12.882812 24.375 -10.953125 24.1875 -8.828125 C 23.988281 -6.703125 23.316406 -4.851562 22.171875 -3.28125 C 21.035156 -1.71875 19.539062 -0.554688 17.6875 0.203125 C 15.832031 0.972656 13.769531 1.253906 11.5 1.046875 L 2.40625 0.21875 L 4.390625 -21.65625 Z M 12.1875 -3.078125 C 13.382812 -2.972656 14.492188 -3.160156 15.515625 -3.640625 C 16.546875 -4.128906 17.378906 -4.859375 18.015625 -5.828125 C 18.648438 -6.796875 19.023438 -7.9375 19.140625 -9.25 C 19.265625 -10.5625 19.085938 -11.765625 18.609375 -12.859375 C 18.128906 -13.953125 17.414062 -14.832031 16.46875 -15.5 C 15.53125 -16.164062 14.441406 -16.554688 13.203125 -16.671875 L 8.953125 -17.046875 L 7.71875 -3.484375 Z M 12.1875 -3.078125 "/></g></g></g><g fill="#975c8d" fill-opacity="1"><g transform="translate(196.800289, 333.804635)"><g/></g></g><g fill="#975c8d" fill-opacity="1"><g transform="translate(210.316098, 333.17598)"><g><path d="M 7.984375 -24 C 10.359375 -24.46875 12.328125 -24.359375 13.890625 -23.671875 C 15.460938 -22.984375 16.414062 -21.804688 16.75 -20.140625 C 16.976562 -18.992188 16.84375 -17.925781 16.34375 -16.9375 C 15.851562 -15.945312 15.0625 -15.1875 13.96875 -14.65625 C 15.414062 -14.664062 16.632812 -14.257812 17.625 -13.4375 C 18.625 -12.625 19.265625 -11.507812 19.546875 -10.09375 C 19.910156 -8.25 19.46875 -6.648438 18.21875 -5.296875 C 16.976562 -3.941406 15.109375 -3.015625 12.609375 -2.515625 L 2.375 -0.46875 L -1.921875 -22.015625 Z M 9.46875 -15.25 C 10.382812 -15.4375 11.0625 -15.789062 11.5 -16.3125 C 11.945312 -16.84375 12.09375 -17.488281 11.9375 -18.25 C 11.789062 -18.976562 11.410156 -19.5 10.796875 -19.8125 C 10.191406 -20.125 9.4375 -20.175781 8.53125 -19.96875 L 3.734375 -19.015625 L 4.671875 -14.296875 Z M 11.234375 -6.359375 C 12.390625 -6.597656 13.25 -7.007812 13.8125 -7.59375 C 14.375 -8.1875 14.570312 -8.898438 14.40625 -9.734375 C 14.25 -10.503906 13.800781 -11.050781 13.0625 -11.375 C 12.320312 -11.695312 11.375 -11.726562 10.21875 -11.46875 L 5.421875 -10.515625 L 6.4375 -5.40625 Z M 11.234375 -6.359375 "/></g></g></g><g fill="#975c8d" fill-opacity="1"><g transform="translate(237.45129, 327.1842)"><g><path d="M 2.25 -0.90625 L -5.953125 -21.28125 L 9.546875 -27.53125 L 11.078125 -23.71875 L 0.171875 -19.3125 L 1.953125 -14.875 L 11.765625 -18.828125 L 13.3125 -15.015625 L 3.5 -11.0625 L 5.3125 -6.5625 L 16.546875 -11.09375 L 18.078125 -7.28125 Z M 2.25 -0.90625 "/></g></g></g><g fill="#975c8d" fill-opacity="1"><g transform="translate(261.196171, 316.804848)"><g/></g></g><g fill="#975c8d" fill-opacity="1"><g transform="translate(272.986626, 310.21148)"><g><path d="M 5.296875 -23.140625 C 4.148438 -23.378906 3.019531 -23.394531 1.90625 -23.1875 C 0.789062 -22.988281 -0.175781 -22.578125 -1 -21.953125 C -1.96875 -21.203125 -2.671875 -20.269531 -3.109375 -19.15625 C -3.546875 -18.039062 -3.675781 -16.890625 -3.5 -15.703125 C -3.320312 -14.523438 -2.847656 -13.429688 -2.078125 -12.421875 C -1.296875 -11.410156 -0.351562 -10.664062 0.75 -10.1875 C 1.851562 -9.707031 3 -9.535156 4.1875 -9.671875 C 5.382812 -9.804688 6.46875 -10.25 7.4375 -11 C 8.21875 -11.601562 8.863281 -12.398438 9.375 -13.390625 C 9.894531 -14.378906 10.226562 -15.4375 10.375 -16.5625 L 14.609375 -15.8125 C 14.429688 -14.132812 13.929688 -12.535156 13.109375 -11.015625 C 12.296875 -9.492188 11.257812 -8.25 10 -7.28125 C 8.289062 -5.957031 6.4375 -5.15625 4.4375 -4.875 C 2.445312 -4.59375 0.523438 -4.832031 -1.328125 -5.59375 C -3.179688 -6.351562 -4.765625 -7.578125 -6.078125 -9.265625 C -7.359375 -10.941406 -8.113281 -12.769531 -8.34375 -14.75 C -8.582031 -16.726562 -8.296875 -18.65625 -7.484375 -20.53125 C -6.671875 -22.40625 -5.40625 -24.003906 -3.6875 -25.328125 C -2.425781 -26.296875 -0.976562 -26.992188 0.65625 -27.421875 C 2.289062 -27.847656 3.878906 -27.941406 5.421875 -27.703125 Z M 5.296875 -23.140625 "/></g></g></g><g fill="#975c8d" fill-opacity="1"><g transform="translate(293.726715, 293.236729)"><g><path d="M 1.6875 -1.734375 L -14.0625 -17.046875 L -10.609375 -20.609375 L 5.140625 -5.296875 Z M 1.6875 -1.734375 "/></g></g></g><g fill="#975c8d" fill-opacity="1"><g transform="translate(304.314645, 282.587252)"><g><path d="M 3.828125 -18.84375 L -7.75 -27.046875 L -5.015625 -30.90625 L 12.90625 -18.203125 L 10.296875 -14.515625 L -7.375 -14.015625 L 4.140625 -5.84375 L 1.40625 -1.96875 L -16.515625 -14.671875 L -13.90625 -18.359375 Z M 3.828125 -18.84375 "/></g></g></g><g fill="#975c8d" fill-opacity="1"><g transform="translate(321.219351, 257.504949)"><g><path d="M 0.984375 -2.203125 L -19.0625 -11.203125 L -12.203125 -26.453125 L -8.453125 -24.765625 L -13.28125 -14.046875 L -8.921875 -12.09375 L -4.578125 -21.734375 L -0.828125 -20.046875 L -5.171875 -10.40625 L -0.734375 -8.421875 L 4.234375 -19.46875 L 7.984375 -17.78125 Z M 0.984375 -2.203125 "/></g></g></g><g fill="#975c8d" fill-opacity="1"><g transform="translate(332.016829, 233.072305)"><g><path d="M 0.5 -2.375 L -20.984375 -6.953125 L -19.828125 -12.34375 L -5.203125 -16.21875 L -17 -25.65625 L -15.859375 -31.03125 L 5.625 -26.453125 L 4.703125 -22.09375 L -9.8125 -25.1875 L 1.21875 -16.453125 L 0.546875 -13.328125 L -13.078125 -9.8125 L 1.4375 -6.71875 Z M 0.5 -2.375 "/></g></g></g><g fill="#975c8d" fill-opacity="1"><g transform="translate(338.420559, 198.385285)"><g><path d="M -0.3125 -23.9375 L -0.25 -18.640625 L -4.484375 -16.84375 L -4.359375 -6.6875 L -0.0625 -5.015625 L 0 0.09375 L -22.09375 -9.15625 L -22.15625 -14.28125 Z M -16.9375 -11.640625 L -8.359375 -8.265625 L -8.453125 -15.203125 Z M -16.9375 -11.640625 "/></g></g></g><g fill="#863a6f" fill-opacity="1"><g transform="translate(98.083969, 105.618022)"><g><path d="M -18.257812 -22.433594 L -14.664062 -18.328125 L -12.953125 -19.824219 L -1.105469 -6.285156 L -2.816406 -4.789062 L 0.777344 -0.679688 L 10.863281 -9.503906 L 7.265625 -13.613281 L 5.335938 -11.925781 L 1.226562 -16.625 L 7.136719 -21.796875 L 11.25 -17.097656 L 9.414062 -15.492188 L 13.007812 -11.382812 L 23.125 -20.234375 L 19.527344 -24.34375 L 17.722656 -22.761719 L 5.878906 -36.300781 L 7.683594 -37.878906 L 4.085938 -41.988281 L -6.027344 -33.136719 L -2.433594 -29.03125 L -0.597656 -30.636719 L 3.515625 -25.9375 L -2.398438 -20.761719 L -6.507812 -25.460938 L -4.578125 -27.152344 L -8.175781 -31.257812 Z M -18.257812 -22.433594 "/></g></g></g><g fill="#863a6f" fill-opacity="1"><g transform="translate(125.2825, 83.445637)"><g><path d="M -13.03125 -25.824219 L -10.398438 -21.042969 L -8.117188 -22.296875 L 0.535156 -6.574219 L -1.746094 -5.316406 L 0.90625 -0.5 L 12.933594 -7.117188 L 10.28125 -11.9375 L 8.035156 -10.699219 L -0.617188 -26.425781 L 1.628906 -27.660156 L -1.003906 -32.445312 Z M -13.03125 -25.824219 "/></g></g></g><g fill="#863a6f" fill-opacity="1"><g transform="translate(141.941559, 73.704519)"><g><path d="M 14.042969 -13.796875 C 13.636719 -14.882812 12.605469 -16.476562 11.398438 -18.234375 L 5.40625 -26.125 L 7.546875 -26.757812 L 6.027344 -31.914062 L -8.570312 -27.609375 L -7.050781 -22.453125 L -4.867188 -23.097656 L 12.296875 -3.625 L 19.597656 -5.777344 L 22.464844 -31.152344 L 24.40625 -31.726562 L 22.886719 -36.882812 L 11.621094 -33.5625 L 13.140625 -28.40625 L 15.246094 -29.023438 L 14.183594 -19.3125 C 13.972656 -17.097656 13.992188 -14.988281 14.238281 -13.855469 Z M 14.042969 -13.796875 "/></g></g></g><g fill="#863a6f" fill-opacity="1"><g transform="translate(176.122538, 64.920389)"><g><path d="M -0.992188 -28.910156 L -0.609375 -23.464844 L 1.988281 -23.644531 L 3.246094 -5.742188 L 0.644531 -5.558594 L 1.03125 -0.0742188 L 14.726562 -1.035156 L 14.34375 -6.519531 L 11.785156 -6.339844 L 10.527344 -24.246094 L 13.085938 -24.425781 L 12.703125 -29.871094 Z M -0.992188 -28.910156 "/></g></g></g><g fill="#863a6f" fill-opacity="1"><g transform="translate(195.449036, 63.361733)"><g><path d="M 4.710938 -28.539062 L 4.015625 -23.125 L 6.601562 -22.792969 L 4.3125 -4.992188 L 1.726562 -5.324219 L 1.027344 0.132812 L 25.757812 3.3125 L 26.949219 -5.957031 L 19.855469 -6.871094 L 19.363281 -3.054688 L 12.800781 -3.898438 L 13.660156 -10.585938 L 21.453125 -9.582031 L 22.15625 -15.039062 L 14.363281 -16.039062 L 15.089844 -21.699219 L 21.652344 -20.855469 L 21.183594 -17.207031 L 28.28125 -16.292969 L 29.445312 -25.359375 Z M 4.710938 -28.539062 "/></g></g></g><g fill="#863a6f" fill-opacity="1"><g transform="translate(225.325196, 66.536026)"><g><path d="M 15.90625 -3.082031 C 16.265625 -4.28125 17.644531 -9.058594 18.046875 -11.054688 L 19.546875 -17 L 21.734375 -16.015625 L 23.941406 -20.914062 L 11.5 -26.523438 L 9.292969 -21.621094 L 11.402344 -20.671875 L 6.710938 3.023438 L 15.457031 6.96875 L 21.835938 -1.042969 C 22.59375 -2.019531 24.152344 -4.171875 24.8125 -5.238281 L 24.964844 -5.167969 C 24.625 -3.914062 24.039062 -1.503906 23.800781 -0.0703125 L 22.019531 9.925781 L 30.953125 13.953125 L 46.242188 -4.96875 L 48.3125 -4.035156 L 50.523438 -8.9375 L 39.742188 -13.796875 L 37.53125 -8.894531 L 39.605469 -7.960938 L 35.738281 -2.808594 C 34.6875 -1.375 32.277344 2.253906 31.363281 3.882812 L 31.175781 3.800781 C 31.835938 1.828125 32.816406 -1.449219 33.390625 -4.136719 L 35.707031 -15.613281 L 27.863281 -19.148438 L 22.15625 -11.515625 C 19.785156 -8.273438 16.644531 -4.019531 16.09375 -2.996094 Z M 15.90625 -3.082031 "/></g></g></g><g fill="#863a6f" fill-opacity="1"><g transform="translate(265.463556, 86.1347)"><g><path d="M 0.773438 0.6875 L 6.175781 5.503906 L 8.632812 3.425781 C 8.570312 5.863281 9.4375 9.238281 12.554688 12.015625 C 16.230469 15.292969 22.277344 17.578125 26.570312 12.761719 C 33.035156 5.503906 20.148438 -4.648438 22.980469 -7.828125 C 23.945312 -8.910156 25.675781 -8.363281 26.570312 -7.566406 C 28.730469 -5.640625 29.367188 -2.75 27.332031 -0.464844 L 32.917969 4.515625 L 39.824219 -3.234375 L 34.515625 -7.964844 L 31.894531 -5.648438 C 32.722656 -9.0625 30.839844 -12.234375 28.246094 -14.546875 C 25.222656 -17.242188 19.054688 -19.023438 14.984375 -14.457031 C 7.96875 -6.582031 20.734375 2.964844 18.585938 5.371094 C 17.433594 6.667969 15.667969 5.539062 14.585938 4.578125 C 13.34375 3.359375 11.136719 0.617188 13.449219 -1.976562 L 7.703125 -7.09375 Z M 0.773438 0.6875 "/></g></g></g><g clip-path="url(#651478e59b)"><path fill="#975c8d" d="M 161.292969 102.910156 C 161.34375 102.910156 161.457031 102.910156 161.621094 102.925781 C 162.078125 102.941406 162.523438 103.007812 162.960938 103.125 C 165.675781 103.253906 170.714844 103.632812 172.445312 104.421875 C 174.851562 105.535156 174.800781 106.949219 174.652344 107.128906 C 174.539062 107.261719 169.8125 106.800781 168.832031 107.40625 C 169.0625 107.71875 169.273438 108.03125 169.488281 108.375 C 171.089844 109 174.523438 109.164062 175.765625 109.195312 C 176.648438 105.550781 177.890625 102.253906 179.394531 99.53125 C 182.273438 94.3125 186.164062 91.09375 190.382812 91.125 C 194.421875 91.160156 199.835938 92.078125 203.988281 92.472656 L 204.070312 92.472656 C 206.71875 92.621094 209.710938 94.820312 211.96875 99.628906 C 217.347656 111.101562 216.59375 126.542969 211.25 137.835938 C 209.449219 141.660156 207.257812 144.546875 205.148438 146.121094 L 218.867188 148.75 C 218.867188 148.75 209.007812 155.085938 208.960938 155.738281 C 208.910156 156.378906 209.15625 173.613281 209.746094 174.792969 C 210.347656 175.992188 218.867188 179.441406 218.867188 179.441406 L 218.867188 187.023438 L 235.089844 184.886719 C 235.089844 184.625 235.105469 184.394531 235.105469 184.183594 L 234.453125 184.214844 C 234.453125 184.214844 212.574219 176.238281 211.445312 174.15625 C 210.300781 172.054688 210.285156 161.371094 210.285156 161.371094 L 229.773438 156.167969 C 229.824219 157.300781 229.921875 159.234375 230.035156 161.535156 C 226.554688 162.027344 214.273438 163.78125 214.78125 164.160156 C 215.304688 164.535156 227.09375 164.011719 230.167969 163.816406 C 230.234375 165.03125 230.316406 166.292969 230.394531 167.539062 C 227.519531 167.589844 216.253906 167.800781 216.367188 168.132812 C 216.464844 168.460938 227.746094 169.839844 230.542969 169.90625 C 230.886719 174.664062 231.28125 178.703125 231.636719 178.652344 C 232.375 178.519531 232.03125 161.765625 231.882812 155.59375 L 231.949219 155.578125 L 231.3125 144.136719 C 231.3125 144.136719 210.546875 156.460938 210.136719 156.316406 C 209.746094 156.167969 210.234375 155.625 210.234375 155.625 C 210.234375 155.625 233.175781 139.65625 234.351562 139.066406 C 235.367188 138.574219 248.367188 141.972656 252.292969 143.003906 C 254.023438 143.464844 255.171875 145.546875 255.1875 147.339844 L 255.644531 177.78125 C 255.675781 180.753906 254.320312 183.179688 251.179688 183.347656 L 240.796875 183.886719 L 240.863281 189.402344 C 248.023438 188.53125 254.1875 187.859375 254.875 187.988281 C 256.609375 188.320312 257.148438 191.648438 255.578125 193.042969 C 254.808594 193.71875 246.078125 194.472656 237.132812 195.144531 C 229.644531 195.703125 222.007812 196.523438 218.820312 196.886719 L 218.820312 204.1875 C 218.820312 204.1875 218.328125 204.777344 217.25 205.273438 C 216.171875 205.746094 201.472656 207.421875 201.472656 207.421875 L 191.070312 207.503906 C 191.152344 207.699219 191.316406 207.882812 191.59375 207.996094 C 192.835938 208.519531 202.320312 208.800781 202.320312 208.800781 C 203.53125 208.636719 205.671875 219.925781 201.421875 226.015625 C 204.054688 225.964844 205.820312 225.949219 206.050781 226 C 207.226562 226.246094 210.152344 233.238281 209.992188 235.335938 L 210.023438 235.402344 C 211.429688 235.335938 213.390625 235.5 214.273438 236.796875 C 215.320312 238.308594 214.992188 240.835938 214.09375 242.558594 L 239.796875 286.132812 L 227.40625 286.132812 L 204.460938 247.171875 C 203.90625 247.203125 203.417969 247.152344 203.023438 247.007812 C 202.648438 246.859375 202.304688 246.679688 201.992188 246.480469 L 200.292969 246.679688 C 199.066406 246.679688 191.511719 246.792969 191.167969 247.316406 C 191.007812 247.5625 192.984375 247.777344 195.339844 247.941406 L 192.066406 286.132812 L 173.65625 286.132812 L 176.597656 257.855469 C 178.121094 254.421875 181.210938 247.21875 180.328125 246.792969 C 179.65625 246.480469 178.316406 249.027344 177.285156 251.273438 L 177.304688 251.207031 L 159.480469 286.132812 L 152.839844 286.132812 L 172.101562 247.515625 L 171.855469 247.480469 C 168.945312 253.917969 150.421875 285.03125 149.980469 285.03125 C 149.488281 285.03125 148.769531 284.097656 148.769531 284.097656 C 148.769531 284.097656 162.878906 254.261719 166.742188 246.84375 L 163.027344 246.367188 C 160.867188 250.878906 147.671875 278.335938 143.390625 286.132812 L 140.347656 286.132812 L 160.378906 245.777344 C 159.707031 245.054688 158.222656 243.132812 158.5625 240.292969 C 158.890625 237.652344 160.640625 237.125 161.589844 237.042969 C 161.835938 234.960938 163.976562 231.285156 164.335938 231.101562 C 164.792969 230.890625 199.34375 230.890625 198.917969 229.707031 C 198.511719 228.542969 166.394531 228.378906 166.378906 228.148438 C 166.347656 227.917969 167.34375 227.082031 167.34375 227.082031 C 167.34375 227.082031 170.371094 226.96875 174.71875 226.820312 C 176.304688 225.574219 178.039062 222.222656 177.988281 216.25 C 177.921875 211.195312 175.996094 208.71875 174.753906 207.652344 C 168.292969 207.765625 148.277344 208.09375 147.707031 207.832031 C 147.019531 207.535156 146.871094 206.914062 146.871094 206.914062 C 146.773438 206.78125 146.691406 206.617188 146.691406 206.4375 L 146.414062 175.171875 C 146.054688 175.238281 145.710938 175.285156 145.367188 175.351562 L 138.320312 177.585938 C 135.066406 181.113281 130.570312 178.898438 129.34375 174.628906 C 129.035156 173.546875 129.476562 173.121094 129.476562 173.121094 C 129.574219 174.710938 132.335938 175.976562 133.675781 176.351562 C 129.785156 172.957031 134.6875 163.585938 137.503906 168.179688 C 135.835938 169.609375 135.933594 171.691406 136.097656 173.269531 C 138.320312 172.597656 143.714844 170.9375 148.164062 169.507812 C 151.515625 168.148438 154.425781 167.113281 154.933594 167.066406 C 155.785156 166.242188 155.144531 162.863281 155.144531 162.863281 L 156.554688 161.925781 C 155.539062 161.960938 157.320312 161.1875 157.320312 161.1875 C 157.320312 161.1875 174.570312 155.066406 178.710938 153.605469 C 180.589844 152.949219 181.636719 154.03125 181.667969 155.921875 C 181.734375 161.582031 181.636719 192.683594 181.636719 192.683594 C 181.636719 192.683594 181.878906 194.667969 180.164062 195.144531 C 178.429688 195.621094 156.488281 198.738281 156.015625 198.429688 C 155.539062 198.132812 155.867188 197.460938 155.867188 197.460938 C 155.867188 197.460938 177.90625 192.042969 178.5625 192.15625 L 178.398438 192.125 C 178.398438 192.125 158.449219 195.882812 157.714844 195.359375 C 156.980469 194.816406 157.4375 193.636719 158.484375 193.308594 C 159.511719 192.960938 177.957031 189.203125 177.957031 189.203125 L 177.957031 156.316406 C 177.957031 156.316406 163.191406 160.386719 158.222656 161.582031 C 158.777344 161.632812 159.429688 161.78125 160.003906 162.238281 C 161.390625 163.289062 161.652344 163.863281 161.652344 163.863281 C 164.5 163.519531 165.5625 169.542969 162.324219 172.546875 C 161.652344 173.234375 160.773438 173.792969 159.660156 174.105469 C 156.273438 175.074219 155.179688 172.382812 155.179688 172.382812 L 153.902344 172.792969 C 153.902344 177.027344 153.9375 198.132812 153.445312 198.429688 C 152.9375 198.753906 152.613281 176.402344 152.5625 173.203125 L 147.789062 174.726562 L 148.082031 205.617188 L 186.753906 198.722656 L 186.589844 174.746094 C 186.589844 174.746094 190.320312 180.40625 197.316406 182.210938 C 204.332031 184 209.402344 180.339844 209.402344 180.339844 C 209.402344 180.339844 209.53125 179.867188 209.1875 179.867188 C 209.058594 179.867188 207.226562 180.339844 204.773438 180.390625 C 195.648438 180.585938 190.15625 174.007812 189.925781 165.242188 C 189.828125 161.042969 191.496094 158.039062 192.738281 156.167969 C 194.703125 153.230469 198.558594 151.75 199.394531 151.488281 C 200.230469 151.226562 199.96875 150.851562 199.785156 150.71875 C 199.117188 150.242188 197.007812 150.488281 195.4375 150.980469 C 193.425781 151.621094 191.902344 152.6875 191.121094 153.296875 C 190.007812 154.148438 188.910156 155.214844 188.09375 156.363281 C 187.261719 157.53125 186.6875 158.742188 186.621094 158.695312 C 186.460938 158.613281 186.460938 150.359375 186.460938 146.023438 L 147.691406 161.371094 L 147.691406 165.457031 C 147.691406 165.554688 147.691406 165.636719 147.691406 165.71875 C 147.671875 166.113281 147.609375 166.390625 147.183594 166.390625 C 146.921875 166.390625 146.691406 166.292969 146.527344 166.128906 L 146.527344 166.113281 C 146.347656 165.949219 146.25 165.703125 146.25 165.457031 L 146.25 160.746094 C 146.25 160.335938 146.511719 159.992188 146.871094 159.875 L 154.820312 156.460938 C 152.710938 155.148438 150.894531 152.867188 149.457031 149.863281 C 147.347656 145.402344 146.070312 139.328125 146.070312 132.550781 C 146.070312 131.8125 146.085938 131.007812 146.136719 130.136719 C 146.464844 122.703125 148.246094 115.992188 150.847656 111.117188 C 153.578125 106.011719 157.273438 102.859375 161.292969 102.910156 Z M 240.960938 152.949219 C 241.171875 153.03125 247.304688 151.589844 250.851562 150.703125 C 251.246094 153.671875 252.617188 163.863281 253.140625 164.03125 C 253.175781 164.03125 253.550781 163.996094 253.597656 162.894531 C 253.714844 160.105469 253.519531 153.953125 253.4375 150.308594 C 253.40625 148.484375 253.519531 147.125 253.257812 146.796875 C 252.929688 146.351562 240.273438 152.179688 240.273438 152.179688 C 240.273438 152.179688 240.664062 152.867188 240.960938 152.949219 Z M 180.914062 224.898438 C 180.914062 224.898438 179.609375 225.308594 180.328125 225.636719 C 181.046875 225.984375 200.015625 225.523438 199.246094 224.753906 C 198.480469 223.980469 180.914062 224.898438 180.914062 224.898438 Z M 199.574219 95.558594 C 200.703125 96.246094 205.511719 97.347656 205.511719 97.347656 C 209.628906 101.730469 212.65625 113.464844 212.507812 124.34375 C 214.585938 116.367188 212.507812 100.53125 207.015625 95.542969 C 203.988281 95 200.980469 94.476562 197.957031 93.933594 C 197.957031 93.933594 198.445312 94.886719 199.574219 95.558594 Z M 201.601562 154.789062 C 200.898438 154.378906 200.082031 154.132812 199.214844 154.132812 C 196.417969 154.097656 194.144531 156.496094 194.144531 159.464844 C 194.144531 162.421875 196.417969 164.847656 199.214844 164.882812 C 199.328125 164.882812 199.425781 164.882812 199.523438 164.863281 C 197.921875 163.945312 196.828125 162.15625 196.828125 160.105469 C 196.828125 157.234375 198.933594 154.921875 201.601562 154.789062 Z M 198.855469 171.050781 C 198.855469 169.148438 199.769531 167.457031 201.191406 166.390625 C 198.527344 166.949219 196.53125 169.28125 196.53125 172.101562 C 196.53125 175.351562 199.183594 178.011719 202.46875 178.042969 C 203.808594 178.058594 205.050781 177.632812 206.050781 176.878906 C 205.640625 176.960938 205.214844 177.011719 204.773438 177.011719 C 201.503906 176.976562 198.855469 174.320312 198.855469 171.050781 Z M 201.355469 221.191406 C 200.585938 220.417969 183.027344 221.339844 183.027344 221.339844 C 183.027344 221.339844 181.71875 221.75 182.4375 222.09375 C 183.15625 222.4375 202.125 221.960938 201.355469 221.191406 Z M 207.390625 158.742188 C 201.273438 159.285156 201.925781 168.082031 207.554688 166.933594 Z M 213.160156 157.003906 C 213.160156 157.003906 228.792969 149.027344 228.910156 149.339844 C 229.023438 149.667969 229.464844 153.113281 228.710938 153.457031 C 227.945312 153.804688 213.914062 157.90625 213.375 157.757812 C 212.816406 157.609375 213.160156 157.003906 213.160156 157.003906 Z M 235.105469 186.90625 L 212.179688 189.960938 C 212.164062 189.960938 212.148438 189.960938 212.113281 189.960938 C 204.527344 191.089844 193.230469 192.796875 193.035156 192.863281 C 192.738281 192.960938 191.203125 194.636719 194.015625 195.097656 C 196.351562 195.492188 211.953125 193.207031 217.152344 192.421875 L 217.152344 192.402344 C 217.152344 192.402344 217.511719 192.355469 218.132812 192.273438 C 218.574219 192.207031 218.820312 192.15625 218.820312 192.15625 L 218.820312 192.175781 C 221.84375 191.78125 228.546875 190.910156 235.367188 190.074219 C 235.203125 189.203125 235.136719 188.039062 235.105469 186.90625 Z M 173.296875 182.132812 C 173.984375 182.148438 174.523438 182.789062 174.492188 183.574219 C 174.457031 184.363281 173.867188 185.019531 173.183594 185.003906 C 172.480469 185.003906 171.9375 184.34375 171.972656 183.558594 C 172.003906 182.769531 172.59375 182.132812 173.296875 182.132812 Z M 163.960938 180.898438 C 164.664062 180.914062 165.21875 181.882812 165.21875 183.097656 C 165.21875 184.296875 164.664062 185.28125 163.960938 185.265625 C 163.273438 185.265625 162.699219 184.28125 162.699219 183.082031 C 162.699219 181.867188 163.273438 180.898438 163.960938 180.898438 Z M 164.53125 177.550781 C 166.675781 177.566406 168.40625 180.078125 168.40625 183.148438 C 168.40625 186.234375 166.675781 188.710938 164.53125 188.679688 C 164.367188 188.679688 164.203125 188.664062 164.058594 188.628906 C 166.984375 186.921875 167.296875 179.273438 162.75 179.242188 C 162.324219 179.226562 161.914062 179.339844 161.539062 179.539062 C 162.261719 178.304688 163.320312 177.535156 164.53125 177.550781 Z M 169.929688 163.09375 C 173.035156 163.125 175.539062 166.898438 175.539062 171.527344 C 175.539062 176.175781 173.035156 179.898438 169.929688 179.882812 C 167.375 179.851562 165.234375 177.304688 164.53125 173.859375 C 165.203125 175.8125 166.558594 177.160156 168.113281 177.175781 C 170.335938 177.191406 172.136719 174.515625 172.136719 171.199219 C 172.136719 167.902344 170.335938 165.191406 168.113281 165.175781 C 166.871094 165.160156 165.757812 165.996094 165.023438 167.328125 C 165.988281 164.785156 167.820312 163.078125 169.929688 163.09375 Z M 157.859375 178.324219 C 158.546875 178.339844 159.085938 178.980469 159.054688 179.765625 C 159.023438 180.554688 158.433594 181.210938 157.746094 181.195312 C 157.042969 181.195312 156.503906 180.539062 156.535156 179.75 C 156.570312 178.945312 157.15625 178.324219 157.859375 178.324219 Z M 166.59375 173.613281 C 169.765625 176.140625 171.367188 171.789062 170.238281 169.296875 C 169.765625 168.214844 167.800781 168.230469 167.476562 168.296875 C 167.148438 168.34375 168.359375 168.195312 168.425781 170.773438 C 168.488281 173.332031 166.59375 173.613281 166.59375 173.613281 Z M 154.3125 149.125 C 152.074219 145.433594 150.601562 139.277344 150.601562 132.320312 C 150.601562 127.742188 151.335938 123.523438 152.316406 120.109375 C 152.695312 118.832031 153.460938 118.683594 153.039062 120.289062 C 152.285156 123.226562 151.941406 126.660156 151.941406 130.300781 C 151.941406 137.390625 153.265625 144.039062 155.539062 147.796875 C 156.144531 148.617188 156.109375 149.257812 155.816406 149.570312 C 155.472656 149.914062 154.820312 149.847656 154.3125 149.125 Z M 161.457031 145.632812 C 162.472656 145.320312 164.597656 144.761719 165.921875 145.203125 C 166.855469 145.515625 167.410156 146.648438 167.738281 147.699219 C 167.917969 147.355469 168.082031 146.992188 168.246094 146.617188 L 166.347656 137.390625 C 165.167969 142.019531 163.109375 144.515625 161.035156 144.152344 C 161.179688 144.664062 161.328125 145.1875 161.457031 145.632812 Z M 164.253906 152.425781 C 164.289062 152.292969 164.304688 152.128906 164.335938 151.964844 C 164.628906 151.34375 164.808594 150.585938 164.808594 149.765625 C 164.808594 147.648438 163.632812 145.941406 162.179688 145.925781 C 162 145.925781 161.800781 145.960938 161.621094 146.007812 L 161.539062 145.992188 L 161.554688 146.023438 C 160.773438 146.304688 160.117188 147.089844 159.789062 148.125 C 159.414062 146.925781 157.597656 141.230469 157.894531 141.117188 C 158.152344 141.019531 159.675781 141.460938 160.3125 142.199219 C 160.589844 141.824219 160.933594 141.460938 161.179688 141.199219 C 163.109375 139.230469 164.222656 135.699219 164.367188 131.007812 C 164.433594 129.105469 164.269531 127.316406 163.960938 125.722656 L 163.925781 125.542969 C 163.242188 122.292969 161.851562 119.878906 160.132812 119.144531 C 160.574219 118.929688 159.675781 118.796875 161.492188 118.816406 C 162.488281 118.832031 164.351562 119.714844 165.710938 122.082031 C 165.726562 122.097656 165.726562 122.097656 165.726562 122.128906 C 166.132812 122.820312 166.480469 123.65625 166.757812 124.640625 C 167.082031 125.507812 167.441406 126.59375 167.738281 127.789062 C 168.621094 131.320312 169.667969 135.914062 170.515625 139.835938 C 171.21875 136.917969 171.675781 133.730469 171.824219 130.367188 C 171.855469 129.644531 171.875 128.875 171.875 128.054688 C 171.875 121.621094 170.679688 115.894531 168.71875 111.738281 C 166.855469 107.832031 164.335938 105.40625 161.523438 105.257812 C 161.492188 105.242188 161.425781 105.242188 161.292969 105.242188 C 158.203125 105.222656 155.210938 107.882812 152.890625 112.234375 C 150.4375 116.8125 148.769531 123.179688 148.460938 130.253906 C 148.425781 130.992188 148.410156 131.761719 148.410156 132.585938 C 148.410156 139 149.585938 144.730469 151.566406 148.878906 C 153.183594 152.292969 155.328125 154.59375 157.730469 155.214844 Z M 159.347656 123.621094 C 161.210938 123.636719 162.734375 126.9375 162.734375 130.992188 C 162.734375 135.0625 161.210938 138.328125 159.347656 138.308594 C 158.285156 138.308594 157.335938 137.226562 156.714844 135.570312 C 157.042969 136.078125 157.4375 136.375 157.84375 136.375 C 159.023438 136.390625 159.96875 133.960938 159.96875 130.976562 C 159.96875 127.972656 159.023438 125.527344 157.84375 125.507812 C 157.4375 125.507812 157.058594 125.804688 156.734375 126.296875 C 157.335938 124.65625 158.285156 123.605469 159.347656 123.621094 Z M 188.40625 110.691406 C 190.582031 110.707031 192.328125 114.546875 192.328125 119.242188 C 192.328125 123.949219 190.582031 127.742188 188.40625 127.726562 C 187.179688 127.710938 186.082031 126.460938 185.363281 124.523438 C 185.742188 125.132812 186.179688 125.476562 186.65625 125.476562 C 188.03125 125.492188 189.125 122.6875 189.125 119.207031 C 189.125 115.726562 188.03125 112.90625 186.65625 112.890625 C 186.179688 112.890625 185.742188 113.21875 185.363281 113.808594 C 186.082031 111.890625 187.179688 110.671875 188.40625 110.691406 Z M 182.175781 138.835938 C 179.933594 135.144531 178.480469 128.988281 178.480469 122.03125 C 178.480469 117.453125 179.199219 113.25 180.199219 109.820312 C 180.558594 108.539062 181.324219 108.410156 180.914062 110.015625 C 180.148438 112.9375 179.804688 116.382812 179.804688 120.027344 C 179.804688 127.117188 181.128906 133.765625 183.402344 137.507812 C 184.007812 138.328125 183.992188 138.984375 183.679688 139.296875 C 183.351562 139.625 182.683594 139.558594 182.175781 138.835938 Z M 191.167969 104.386719 C 195.175781 104.421875 198.199219 111.625 197.921875 120.457031 C 197.660156 129.300781 194.03125 137.589844 190.1875 136.40625 C 187.964844 135.71875 189.859375 133.699219 190.792969 132.746094 C 193.214844 130.253906 194.636719 125.789062 194.816406 119.832031 C 195.0625 112.429688 192.738281 106.226562 189.453125 104.8125 C 190.007812 104.519531 190.582031 104.386719 191.167969 104.386719 Z M 179.445312 142.003906 C 179.148438 143.203125 178.609375 145.1875 177.957031 146.550781 L 181.898438 144.859375 C 181.015625 144.070312 180.199219 143.105469 179.445312 142.003906 Z M 184.300781 143.824219 L 186.804688 142.742188 C 187.046875 142.644531 187.292969 142.644531 187.507812 142.726562 L 192.117188 143.628906 C 192.820312 143.121094 193.507812 142.511719 194.144531 141.789062 C 194.179688 141.757812 194.210938 141.722656 194.242188 141.691406 C 194.636719 141.25 195.011719 140.773438 195.386719 140.261719 C 195.40625 140.230469 195.4375 140.183594 195.46875 140.132812 C 195.976562 139.445312 196.449219 138.671875 196.890625 137.851562 C 197.660156 136.457031 198.363281 134.898438 198.96875 133.207031 L 198.984375 133.191406 C 199.003906 133.125 199.035156 133.042969 199.066406 132.976562 L 199.082031 132.894531 L 199.097656 132.878906 C 199.097656 132.84375 199.117188 132.796875 199.132812 132.746094 C 199.882812 130.597656 200.472656 128.25 200.914062 125.757812 C 200.914062 125.722656 200.914062 125.691406 200.933594 125.675781 C 201.273438 123.636719 201.503906 121.523438 201.601562 119.339844 C 201.632812 118.582031 201.652344 117.78125 201.652344 116.941406 C 201.652344 110.871094 200.195312 99.1875 194.113281 94.789062 C 193.097656 94.046875 191.902344 93.539062 190.644531 93.472656 C 190.613281 93.472656 190.515625 93.472656 190.382812 93.472656 C 187.082031 93.441406 183.910156 96.199219 181.421875 100.679688 C 178.824219 105.390625 177.058594 111.9375 176.730469 119.191406 C 176.699219 119.960938 176.679688 120.75 176.679688 121.585938 C 176.679688 128.183594 177.921875 134.078125 180 138.328125 C 181.210938 140.773438 182.664062 142.675781 184.300781 143.824219 Z M 139.089844 235.664062 L 156.125 224.980469 C 155.996094 224.914062 155.882812 224.800781 155.816406 224.636719 C 155.816406 224.636719 155.375 223.636719 154.835938 223.601562 C 154.640625 223.585938 152.285156 224.964844 149.421875 226.6875 C 144.632812 229.578125 138.628906 233.382812 138.515625 233.535156 C 138.453125 233.613281 138.453125 234.105469 138.714844 234.863281 C 138.796875 235.125 138.925781 235.386719 139.089844 235.664062 Z M 158.613281 225.851562 C 158.921875 226.671875 159.382812 228.179688 159.023438 229.019531 C 158.546875 230.152344 143.355469 238.914062 142.769531 239.242188 C 142.71875 239.277344 142.652344 239.308594 142.589844 239.324219 C 142.589844 239.324219 140.917969 239.800781 138.859375 237.652344 C 138.089844 236.847656 137.648438 236.042969 137.40625 235.320312 C 136.964844 234.074219 137.191406 232.992188 137.40625 232.695312 C 137.585938 232.464844 143.816406 228.445312 148.703125 225.492188 C 151.777344 223.636719 154.410156 222.175781 154.933594 222.207031 C 155.652344 222.257812 156.207031 222.765625 156.570312 223.242188 C 156.648438 223.175781 156.734375 223.113281 156.8125 223.0625 L 163.191406 219.320312 C 163.945312 218.859375 164.957031 219.089844 165.464844 219.863281 C 165.953125 220.632812 165.757812 221.648438 165.007812 222.109375 Z M 165.855469 221.535156 C 165.855469 221.535156 169.0625 223.488281 171.121094 223.273438 C 173.183594 223.0625 175.40625 219.648438 174.816406 214.953125 C 174.230469 210.246094 172.609375 208.949219 171.398438 208.308594 C 170.207031 207.652344 163.566406 210.390625 165.1875 210.472656 C 166.789062 210.539062 168.601562 212.082031 168.359375 216.152344 C 168.128906 220.238281 165.855469 221.535156 165.855469 221.535156 " fill-opacity="1" fill-rule="nonzero"/></g><path fill="#ffffff" d="M 182.714844 238.683594 C 184.449219 238.683594 185.902344 240.128906 185.96875 241.917969 C 186.035156 243.558594 184.90625 244.90625 183.386719 245.121094 C 183.253906 245.136719 183.105469 245.152344 182.960938 245.152344 C 182.734375 245.152344 182.484375 245.121094 182.257812 245.070312 C 178.136719 244.871094 163.925781 244.152344 163.175781 243.96875 C 162.308594 243.757812 161.230469 243.132812 161.128906 242.707031 C 161.035156 242.347656 175.191406 243 180.035156 243.25 C 179.835938 242.839844 179.722656 242.394531 179.707031 241.917969 C 179.640625 240.128906 180.980469 238.683594 182.714844 238.683594 " fill-opacity="1" fill-rule="evenodd"/></svg>