<svg xmlns="http://www.w3.org/2000/svg" xmlns:xlink="http://www.w3.org/1999/xlink" width="500" zoomAndPan="magnify" viewBox="0 0 375 374.999991" height="500" preserveAspectRatio="xMidYMid meet" version="1.0"><defs><clipPath id="3b5cee9e58"><path d="M 52.019531 23 L 291.5 23 L 291.5 362.769531 L 52.019531 362.769531 Z M 52.019531 23 " clip-rule="nonzero"/></clipPath><clipPath id="4913551d96"><path d="M 44.238281 12.558594 L 347 12.558594 L 347 362.808594 L 44.238281 362.808594 Z M 44.238281 12.558594 " clip-rule="nonzero"/></clipPath></defs><rect x="-37.5" width="450" fill="#ffffff" y="-37.499999" height="449.999989" fill-opacity="1"/><rect x="-37.5" width="450" fill="#ffffff" y="-37.499999" height="449.999989" fill-opacity="1"/><rect x="-37.5" width="450" fill="#ffffff" y="-37.499999" height="449.999989" fill-opacity="1"/><g clip-path="url(#3b5cee9e58)"><path fill="#863a6f" d="M 52.460938 173.832031 C 52.832031 173.769531 53.199219 173.710938 53.574219 173.675781 C 54.25 173.609375 54.917969 173.574219 55.589844 173.574219 C 56.929688 173.578125 58.261719 173.710938 59.5625 173.976562 L 59.5625 30.402344 L 129.796875 30.402344 C 131.078125 27.863281 132.5 25.492188 134.046875 23.300781 L 52.460938 23.300781 Z M 283.917969 355.667969 L 256.160156 355.667969 L 263.03125 362.769531 L 291.019531 362.769531 L 291.019531 213.144531 L 283.917969 213.210938 Z M 59.5625 205.34375 C 58.894531 205.519531 58.199219 205.65625 57.484375 205.734375 L 57.050781 201.316406 L 57.480469 205.734375 C 56.992188 205.78125 56.503906 205.808594 56.023438 205.808594 C 54.796875 205.808594 53.609375 205.636719 52.460938 205.351562 L 52.460938 362.769531 L 127.398438 362.769531 L 130.824219 355.667969 L 59.5625 355.667969 Z M 190.566406 355.667969 L 189.792969 362.769531 L 228.765625 362.769531 L 221.367188 355.667969 Z M 211.738281 23.300781 C 213.171875 25.042969 214.523438 26.929688 215.785156 28.9375 C 216.085938 29.417969 216.375 29.910156 216.667969 30.402344 L 283.917969 30.402344 L 283.917969 82.738281 L 291.019531 83.355469 L 291.019531 23.300781 L 211.738281 23.300781 " fill-opacity="1" fill-rule="nonzero"/></g><g clip-path="url(#4913551d96)"><path fill="#863a6f" d="M 143.140625 272.953125 L 143.097656 272.953125 C 143.054688 272.949219 143.007812 272.949219 142.957031 272.949219 C 143.023438 272.949219 143.078125 272.949219 143.140625 272.953125 Z M 90.714844 150.007812 C 79.914062 142.640625 71.804688 125.507812 70.675781 104.855469 C 69.105469 76.136719 81.636719 51.492188 98.65625 49.800781 C 102.597656 49.410156 106.433594 50.300781 110.019531 52.234375 C 110.855469 52.792969 111.671875 53.398438 112.46875 54.070312 L 126.820312 55.109375 C 126.789062 55.304688 126.761719 55.5 126.738281 55.695312 L 114.964844 56.40625 C 115.066406 56.511719 115.167969 56.621094 115.265625 56.730469 L 126.527344 57.195312 C 126.476562 57.625 126.429688 58.0625 126.378906 58.492188 L 117.667969 59.539062 C 117.710938 59.601562 117.757812 59.660156 117.808594 59.71875 L 126.214844 60.070312 C 126.128906 61.023438 126.054688 61.976562 125.996094 62.941406 L 120.65625 63.894531 C 120.769531 64.082031 120.886719 64.269531 120.996094 64.457031 L 125.910156 64.589844 C 125.839844 66.175781 125.804688 67.78125 125.816406 69.402344 L 123.808594 69.90625 C 123.886719 70.066406 123.957031 70.214844 124.027344 70.371094 L 125.824219 70.476562 C 125.84375 71.78125 125.882812 73.09375 125.953125 74.414062 C 126.414062 82.855469 127.917969 90.769531 130.230469 97.816406 C 131.402344 120.90625 123.464844 141.304688 111.429688 149.167969 L 122.027344 145.019531 C 129.542969 138.085938 134.503906 124.746094 134.605469 109.496094 C 136.960938 114.414062 144.171875 127.46875 155.898438 131.742188 L 160.269531 130.035156 C 156.644531 129.207031 154.449219 128.265625 152.097656 127.066406 C 151.1875 126.570312 150.300781 126.015625 149.425781 125.421875 C 138 116.714844 129.535156 98.113281 128.3125 75.847656 C 126.554688 43.710938 140.574219 16.125 159.625 14.230469 C 164.039062 13.792969 168.328125 14.796875 172.351562 16.960938 C 173.277344 17.589844 174.195312 18.261719 175.085938 19.011719 L 196.035156 20.53125 L 177.878906 21.628906 C 177.996094 21.742188 178.101562 21.867188 178.210938 21.984375 L 199.691406 22.882812 L 180.898438 25.132812 C 180.953125 25.203125 181.003906 25.269531 181.054688 25.339844 L 204.863281 26.328125 L 184.246094 30.007812 C 184.371094 30.214844 184.5 30.425781 184.625 30.636719 L 209.285156 31.304688 L 187.78125 36.738281 C 187.859375 36.910156 187.945312 37.078125 188.019531 37.253906 L 213.84375 38.777344 L 190.941406 45.0625 C 191.054688 45.414062 191.167969 45.761719 191.273438 46.121094 L 215.132812 47.195312 L 192.644531 51.265625 C 192.699219 51.5 192.746094 51.742188 192.808594 51.980469 L 215.257812 53.226562 L 193.5 55.382812 C 194.214844 59.289062 194.71875 63.363281 194.945312 67.574219 C 196.703125 99.71875 182.683594 127.300781 163.628906 129.191406 C 167.597656 128.796875 185.847656 131.15625 191.933594 130.554688 C 210.871094 128.675781 224.808594 101.253906 223.058594 69.308594 C 221.417969 39.355469 206.582031 16.0625 189.128906 14.8125 C 187.984375 14.730469 166.371094 13.09375 160.808594 12.75 C 160.84375 12.753906 160.875 12.761719 160.914062 12.765625 C 159.710938 12.671875 158.492188 12.679688 157.261719 12.800781 C 143.152344 14.199219 131.808594 29.703125 127.585938 50.707031 C 126.738281 50.523438 125.886719 50.378906 125.015625 50.316406 C 123.992188 50.242188 104.6875 48.78125 99.714844 48.476562 C 99.777344 48.480469 99.847656 48.492188 99.914062 48.5 C 99.539062 48.464844 99.167969 48.457031 98.789062 48.449219 C 99.097656 48.453125 99.402344 48.453125 99.710938 48.472656 C 99.632812 48.472656 99.542969 48.464844 99.46875 48.460938 C 99.226562 48.445312 98.984375 48.449219 98.734375 48.449219 C 98.011719 48.429688 97.28125 48.449219 96.542969 48.519531 C 79.523438 50.207031 66.992188 74.855469 68.566406 103.574219 C 69.765625 125.550781 78.878906 143.523438 90.714844 150.007812 Z M 155.398438 47.691406 C 155.46875 47.703125 155.539062 47.71875 155.585938 47.730469 C 155.621094 47.734375 155.648438 47.75 155.675781 47.753906 C 155.585938 47.734375 155.492188 47.714844 155.398438 47.691406 Z M 149.410156 55.859375 C 149.433594 55.863281 149.453125 55.875 149.46875 55.875 C 149.410156 55.863281 149.347656 55.84375 149.277344 55.828125 C 149.328125 55.839844 149.378906 55.847656 149.410156 55.859375 Z M 160.269531 97.070312 C 168.390625 96.265625 174.367188 84.503906 173.617188 70.800781 C 172.917969 57.953125 166.550781 47.964844 159.066406 47.425781 C 158.574219 47.390625 154.636719 47.230469 152.707031 47.460938 C 152.730469 47.464844 152.773438 47.46875 152.800781 47.46875 C 152.6875 47.472656 152.570312 47.472656 152.457031 47.484375 C 146.949219 48.03125 142.425781 53.605469 140.296875 61.398438 C 138.574219 64.730469 137.640625 69.214844 137.902344 74.050781 C 138.167969 78.902344 139.597656 83.164062 141.671875 86.117188 C 143.597656 90.835938 146.410156 94.421875 149.660156 96.203125 C 147.125 94.472656 144.90625 91.605469 143.230469 87.980469 C 143.878906 88.617188 144.570312 89.140625 145.289062 89.535156 C 141.695312 87.078125 138.984375 81.367188 138.609375 74.476562 C 138.085938 64.898438 142.265625 56.675781 147.9375 56.113281 C 149.25 55.988281 150.523438 56.285156 151.714844 56.925781 C 155.351562 59.355469 158.082031 65.085938 158.46875 72.011719 C 158.988281 81.589844 154.8125 89.8125 149.136719 90.375 C 150.316406 90.257812 150.851562 90.320312 152.664062 90.140625 C 158.308594 89.582031 162.460938 81.410156 161.941406 71.886719 C 161.449219 62.960938 157.023438 56.019531 151.828125 55.648438 C 151.484375 55.621094 148.75 55.511719 147.410156 55.671875 C 147.425781 55.675781 147.453125 55.675781 147.476562 55.679688 C 147.398438 55.683594 147.316406 55.679688 147.238281 55.691406 C 145.558594 55.859375 144.015625 56.691406 142.683594 58.03125 C 145.105469 52.378906 148.953125 48.546875 153.472656 48.101562 C 155.34375 47.917969 157.164062 48.335938 158.875 49.242188 C 164.117188 52.734375 168.078125 60.988281 168.617188 70.980469 C 169.378906 84.765625 163.363281 96.601562 155.191406 97.40625 C 156.894531 97.242188 157.660156 97.332031 160.269531 97.070312 Z M 155.378906 95.066406 C 155.421875 95.0625 155.460938 95.0625 155.5 95.054688 C 162.796875 94.335938 168.148438 83.453125 167.453125 70.757812 C 166.761719 58.0625 160.28125 48.355469 152.988281 49.078125 C 150.855469 49.289062 148.890625 50.371094 147.195312 52.109375 C 148.75 50.691406 150.507812 49.808594 152.402344 49.617188 C 159.621094 48.90625 166.035156 58.511719 166.722656 71.078125 C 167.394531 83.363281 162.351562 93.917969 155.378906 95.066406 Z M 272.582031 151.742188 L 331.953125 120.730469 L 271.609375 144.480469 L 328.894531 112.910156 L 266.988281 141.386719 L 333.425781 102.390625 C 334.707031 104.539062 335.554688 106.910156 335.800781 109.371094 L 338.65625 138.179688 Z M 272.988281 205.996094 C 264.539062 205.261719 256.953125 197.875 256.128906 189.578125 L 247.417969 101.703125 C 246.597656 93.410156 252.835938 87.21875 261.285156 87.957031 L 318.9375 92.953125 C 319.445312 92.996094 319.949219 93.066406 320.449219 93.160156 C 320.652344 93.195312 320.851562 93.25 321.050781 93.296875 C 321.339844 93.359375 321.625 93.417969 321.910156 93.496094 C 322.175781 93.566406 322.433594 93.65625 322.691406 93.742188 C 322.90625 93.8125 323.113281 93.875 323.324219 93.953125 C 323.625 94.0625 323.921875 94.1875 324.21875 94.3125 C 324.371094 94.378906 324.527344 94.445312 324.679688 94.511719 C 325.007812 94.667969 325.335938 94.832031 325.660156 95.003906 C 325.761719 95.058594 325.867188 95.113281 325.972656 95.167969 C 326.324219 95.367188 326.675781 95.574219 327.011719 95.792969 C 327.078125 95.835938 327.140625 95.875 327.203125 95.917969 C 327.570312 96.15625 327.929688 96.40625 328.277344 96.675781 C 328.308594 96.695312 328.335938 96.71875 328.363281 96.738281 C 328.738281 97.023438 329.097656 97.320312 329.453125 97.628906 C 326.996094 96.042969 324.210938 94.996094 321.316406 94.746094 L 263.660156 89.746094 C 255.214844 89.011719 248.96875 95.199219 249.792969 103.492188 L 253.523438 141.113281 L 258.246094 141.523438 C 261.777344 141.832031 264.945312 144.914062 265.289062 148.382812 L 268.695312 182.769531 C 268.828125 184.082031 268.535156 185.257812 267.929688 186.210938 C 278.015625 189.417969 316.890625 201.773438 328.675781 205.464844 Z M 238.585938 188.847656 C 231.085938 185.398438 231.816406 178.429688 231.816406 178.429688 C 231.816406 178.429688 228.457031 144.550781 227.945312 139.367188 C 227.625 136.167969 228.582031 133.085938 229.359375 131.1875 L 235.886719 180.753906 L 230.945312 127.984375 L 233.050781 123.960938 L 240.84375 183.171875 L 234.957031 120.316406 L 238.492188 113.570312 L 248.410156 188.914062 L 240.921875 108.933594 L 245.191406 100.777344 L 254.203125 191.667969 C 254.371094 193.390625 254.832031 195.074219 255.507812 196.675781 C 251.285156 194.71875 243.773438 191.238281 238.585938 188.847656 Z M 212.761719 202.332031 C 209.730469 202.320312 206.769531 201.59375 203.980469 200.292969 C 206.464844 201.339844 209.078125 201.921875 211.746094 201.9375 C 221.675781 201.980469 229.378906 194.191406 231.570312 183.238281 C 231.855469 184.175781 232.191406 184.96875 232.535156 185.628906 C 229.667969 195.546875 222.191406 202.375 212.761719 202.332031 Z M 226.703125 244.625 L 228.78125 247.851562 C 228.582031 247.980469 228.355469 248.0625 228.101562 248.058594 C 227.222656 248.058594 226.429688 247.167969 226.324219 246.078125 C 226.269531 245.5 226.417969 244.988281 226.703125 244.625 Z M 227.71875 244.109375 C 228.59375 244.113281 229.390625 245 229.492188 246.09375 C 229.539062 246.550781 229.449219 246.964844 229.269531 247.300781 L 227.269531 244.203125 C 227.410156 244.148438 227.558594 244.109375 227.71875 244.109375 Z M 217.523438 223.671875 C 215.980469 226.253906 208.484375 238.605469 208.484375 238.605469 C 208.484375 238.605469 207.523438 240.480469 206.46875 240.613281 C 205.40625 240.746094 203.664062 238.953125 203.664062 238.953125 C 203.664062 238.953125 195.4375 229.21875 190.347656 223.425781 C 185.261719 217.628906 192.175781 218.953125 192.175781 218.953125 L 215.664062 219.945312 C 215.664062 219.945312 219.890625 219.742188 217.523438 223.671875 Z M 183.632812 249.484375 L 181.378906 246.003906 C 181.539062 245.9375 181.707031 245.894531 181.890625 245.894531 C 182.875 245.898438 183.769531 246.898438 183.886719 248.121094 C 183.9375 248.640625 183.835938 249.109375 183.632812 249.484375 Z M 182.316406 250.335938 C 181.332031 250.332031 180.441406 249.332031 180.320312 248.109375 C 180.261719 247.457031 180.429688 246.882812 180.746094 246.476562 L 183.085938 250.101562 C 182.863281 250.25 182.605469 250.339844 182.316406 250.335938 Z M 171.503906 175.101562 C 169.949219 158.988281 177.878906 145.597656 189.816406 142.667969 C 190.128906 142.59375 190.75 142.449219 191.570312 142.265625 C 182.996094 148.285156 177.910156 159.742188 179.175781 172.878906 C 180.863281 190.429688 193.292969 204.945312 207.941406 207.476562 C 206.464844 207.785156 205.175781 208.035156 204.441406 208.140625 C 203.414062 208.292969 202.355469 208.371094 201.277344 208.367188 C 186.601562 208.300781 173.265625 193.410156 171.503906 175.101562 Z M 168.667969 135.371094 C 168.605469 134.722656 168.777344 134.148438 169.09375 133.742188 L 171.429688 137.363281 C 171.207031 137.515625 170.945312 137.605469 170.660156 137.601562 C 169.675781 137.597656 168.785156 136.601562 168.667969 135.371094 Z M 170.234375 133.164062 C 171.21875 133.167969 172.113281 134.164062 172.230469 135.386719 C 172.28125 135.90625 172.175781 136.375 171.976562 136.75 L 169.722656 133.261719 C 169.882812 133.203125 170.054688 133.164062 170.234375 133.164062 Z M 204.035156 139.753906 C 204.390625 139.710938 204.753906 139.679688 205.117188 139.65625 C 191.285156 140.632812 181.625 154.992188 183.324219 172.625 C 185.089844 190.929688 198.421875 205.824219 213.101562 205.890625 C 214.449219 205.894531 215.757812 205.769531 217.03125 205.535156 C 216.957031 205.546875 216.882812 205.566406 216.808594 205.578125 C 216.0625 205.707031 212.464844 206.519531 209.238281 207.203125 C 194.554688 204.835938 182.042969 190.339844 180.351562 172.78125 C 179.058594 159.347656 184.449219 147.683594 193.417969 141.855469 C 197.058594 141.058594 202.230469 139.976562 204.035156 139.753906 Z M 200.378906 183.210938 C 199.691406 178.519531 201.140625 174.433594 203.863281 172.21875 C 204.292969 172.082031 204.746094 171.9375 205.210938 171.792969 C 202.410156 174.132812 200.796875 178.101562 201.234375 182.601562 C 201.878906 189.34375 206.878906 194.863281 212.652344 195.476562 C 212.195312 195.621094 211.726562 195.773438 211.257812 195.921875 C 206.050781 195.089844 201.328125 189.714844 200.378906 183.210938 Z M 200.914062 173.128906 C 200.957031 173.121094 201.050781 173.089844 201.175781 173.054688 C 198.441406 175.269531 196.988281 179.367188 197.675781 184.0625 C 198.628906 190.566406 203.34375 195.941406 208.550781 196.773438 C 207.445312 197.121094 206.589844 197.367188 206.335938 197.40625 C 205.953125 197.457031 205.5625 197.488281 205.164062 197.484375 C 199.722656 197.464844 194.777344 191.941406 194.128906 185.152344 C 193.546875 179.179688 196.488281 174.21875 200.914062 173.128906 Z M 193.3125 159.5 C 194.054688 164.582031 197.742188 168.785156 201.8125 169.441406 C 200.949219 169.707031 200.28125 169.902344 200.078125 169.933594 C 199.785156 169.972656 199.472656 169.996094 199.164062 169.992188 C 194.90625 169.976562 191.042969 165.65625 190.53125 160.351562 C 190.078125 155.679688 192.378906 151.800781 195.839844 150.949219 C 195.875 150.941406 195.945312 150.921875 196.042969 150.890625 C 193.90625 152.625 192.769531 155.824219 193.3125 159.5 Z M 213.558594 158.050781 C 213.828125 160.890625 213.082031 163.425781 211.683594 165.175781 C 211.703125 165.835938 211.757812 166.511719 211.855469 167.199219 C 211.980469 168.042969 212.171875 168.863281 212.402344 169.660156 C 212.019531 169.617188 211.636719 169.589844 211.25 169.59375 C 210.195312 169.59375 209.195312 169.777344 208.257812 170.097656 C 208.140625 169.535156 208.039062 168.972656 207.980469 168.390625 C 207.957031 168.09375 207.945312 167.804688 207.929688 167.515625 C 207.902344 167.523438 207.878906 167.53125 207.847656 167.535156 C 207.667969 167.5625 205.792969 168.175781 203.929688 168.769531 C 199.855469 168.121094 196.164062 163.917969 195.425781 158.828125 C 194.882812 155.164062 196.019531 151.964844 198.148438 150.238281 C 200.429688 149.519531 203.644531 148.515625 204.148438 148.453125 C 204.402344 148.421875 204.660156 148.40625 204.921875 148.410156 C 208.660156 148.421875 212.09375 151.753906 213.222656 156.15625 C 213.898438 155.765625 214.621094 155.464844 215.386719 155.273438 C 215.433594 155.261719 215.535156 155.230469 215.667969 155.191406 C 214.832031 155.875 214.105469 156.722656 213.507812 157.695312 C 213.523438 157.816406 213.542969 157.933594 213.558594 158.050781 Z M 224.164062 151.351562 C 223.539062 152.597656 223.027344 153.945312 222.648438 155.378906 C 220.476562 157.578125 219.261719 161.097656 219.644531 165.085938 C 220.097656 169.789062 222.644531 173.859375 225.980469 175.882812 C 226.796875 177.1875 227.714844 178.394531 228.71875 179.476562 C 228.0625 179.6875 227.371094 179.910156 226.671875 180.132812 C 225.347656 179.921875 224.050781 179.433594 222.832031 178.726562 C 223.074219 179.457031 223.269531 180.214844 223.40625 180.996094 C 223.511719 181.015625 223.609375 181.046875 223.71875 181.0625 C 223.621094 181.09375 223.527344 181.125 223.425781 181.152344 C 223.488281 181.503906 223.539062 181.851562 223.574219 182.207031 C 224.167969 188.410156 220.984375 193.519531 216.277344 194.339844 C 216.101562 194.367188 214.710938 194.816406 213.019531 195.355469 C 207.285156 194.75 202.316406 189.265625 201.671875 182.566406 C 200.988281 175.449219 205.449219 169.660156 211.632812 169.636719 C 211.886719 169.636719 212.148438 169.65625 212.402344 169.675781 C 212.429688 169.742188 212.441406 169.8125 212.464844 169.882812 C 212.484375 169.878906 212.507812 169.875 212.535156 169.875 C 213.738281 169.882812 214.917969 170.171875 216.035156 170.671875 C 215.457031 169.28125 215.03125 167.808594 214.804688 166.269531 C 214.054688 161.144531 215.632812 156.691406 218.605469 154.277344 C 220.050781 153.824219 221.753906 153.289062 223.257812 152.828125 C 218.59375 147.65625 212.546875 144.4375 206.207031 144.410156 C 197.882812 144.371094 191.117188 149.839844 187.859375 158.0625 C 191.074219 149.125 198.207031 143.109375 207.058594 143.152344 C 213.386719 143.179688 219.425781 146.296875 224.164062 151.351562 Z M 216.183594 136.085938 L 218.261719 139.308594 C 218.0625 139.445312 217.832031 139.523438 217.578125 139.523438 C 216.703125 139.515625 215.90625 138.628906 215.804688 137.539062 C 215.75 136.960938 215.898438 136.445312 216.183594 136.085938 Z M 217.195312 135.566406 C 218.074219 135.570312 218.867188 136.464844 218.972656 137.550781 C 219.019531 138.011719 218.925781 138.425781 218.746094 138.761719 L 216.746094 135.664062 C 216.886719 135.609375 217.035156 135.566406 217.195312 135.566406 Z M 226.195312 151.972656 C 226.570312 151.871094 226.839844 151.804688 226.976562 151.789062 C 227.332031 151.742188 227.695312 151.722656 228.0625 151.726562 C 228.074219 151.726562 228.082031 151.730469 228.089844 151.730469 L 228.214844 152.992188 C 226.917969 156.089844 226.339844 159.769531 226.71875 163.726562 C 227.101562 167.746094 228.421875 171.488281 230.359375 174.625 L 230.777344 178.820312 C 230.777344 178.820312 230.773438 178.820312 230.773438 178.820312 C 227.375 174.949219 225 169.660156 224.433594 163.835938 C 224.011719 159.4375 224.695312 155.359375 226.195312 151.972656 Z M 227.824219 149.035156 L 228.046875 151.324219 C 227.742188 150.933594 227.433594 150.539062 227.113281 150.160156 C 227.339844 149.773438 227.574219 149.394531 227.824219 149.035156 Z M 346.316406 193.898438 L 337.753906 107.546875 C 336.894531 98.847656 328.9375 91.101562 320.074219 90.332031 L 259.605469 85.089844 C 252.222656 84.445312 246.46875 88.851562 245.246094 95.363281 C 243.027344 99.828125 238.433594 109.058594 234.628906 116.765625 L 234.621094 116.6875 L 234.394531 117.238281 C 232.378906 121.316406 230.605469 124.925781 229.554688 127.101562 C 225.765625 134.957031 226.714844 137.851562 226.714844 137.851562 C 226.714844 137.851562 227.078125 141.496094 227.585938 146.660156 C 226.941406 147.277344 226.34375 147.957031 225.796875 148.691406 C 224.234375 147.035156 222.535156 145.570312 220.746094 144.320312 C 220.855469 144.398438 220.96875 144.464844 221.074219 144.542969 L 220.011719 133.808594 L 165.640625 130.195312 L 177.777344 252.664062 L 231.503906 249.691406 L 226.667969 200.945312 C 226.628906 200.972656 226.589844 201.003906 226.554688 201.035156 C 230.246094 197.980469 233.117188 193.644531 234.847656 188.480469 C 235.042969 188.625 235.160156 188.691406 235.160156 188.691406 L 259.878906 203.078125 C 263.105469 206.289062 267.371094 208.496094 271.878906 208.886719 L 331.773438 208.320312 C 340.632812 209.085938 347.175781 202.597656 346.316406 193.898438 Z M 96.679688 243.117188 C 96.675781 243.113281 96.671875 243.113281 96.664062 243.109375 C 96.65625 243.105469 96.640625 243.105469 96.628906 243.101562 C 96.644531 243.105469 96.660156 243.113281 96.679688 243.117188 Z M 149.417969 55.5625 C 149.390625 55.5625 149.359375 55.558594 149.335938 55.558594 C 149.246094 55.554688 149.152344 55.554688 149.0625 55.554688 C 149.175781 55.554688 149.296875 55.554688 149.417969 55.5625 Z M 144.773438 281.523438 C 144.648438 279.15625 143.40625 277.351562 142.003906 277.492188 C 141.597656 277.535156 141.21875 277.738281 140.898438 278.0625 L 143.574219 285.492188 C 144.371094 284.710938 144.867188 283.207031 144.773438 281.523438 Z M 139.707031 282.027344 C 139.835938 284.390625 141.074219 286.199219 142.476562 286.0625 C 142.699219 286.035156 142.917969 285.960938 143.121094 285.84375 L 140.492188 278.5625 C 139.945312 279.40625 139.628906 280.660156 139.707031 282.027344 Z M 100.558594 261.492188 C 100.589844 261.492188 100.617188 261.492188 100.640625 261.488281 C 105.207031 261.035156 108.554688 254.226562 108.121094 246.28125 C 107.6875 238.332031 103.632812 232.257812 99.066406 232.710938 C 97.730469 232.84375 96.503906 233.523438 95.441406 234.609375 C 96.414062 233.71875 97.511719 233.167969 98.699219 233.050781 C 103.21875 232.601562 107.234375 238.617188 107.660156 246.484375 C 108.085938 254.167969 104.925781 260.78125 100.558594 261.492188 Z M 95.914062 246.121094 C 95.910156 246.117188 95.910156 246.117188 95.910156 246.117188 C 95.902344 246.117188 95.898438 246.113281 95.898438 246.113281 C 95.898438 246.113281 95.90625 246.117188 95.914062 246.121094 Z M 96.574219 243.027344 C 96.601562 243.03125 96.636719 243.03125 96.664062 243.035156 C 96.65625 243.035156 96.652344 243.03125 96.652344 243.03125 C 96.621094 243.03125 96.597656 243.03125 96.574219 243.027344 Z M 98.652344 240.6875 L 98.617188 240.683594 C 98.582031 240.683594 98.546875 240.683594 98.515625 240.683594 C 98.558594 240.683594 98.605469 240.683594 98.652344 240.6875 Z M 98.300781 240.957031 C 98.316406 240.960938 98.328125 240.964844 98.339844 240.96875 C 98.273438 240.949219 98.210938 240.941406 98.140625 240.929688 C 98.210938 240.9375 98.265625 240.945312 98.300781 240.957031 Z M 93.910156 247.902344 C 94.0625 250.699219 95.222656 252.988281 96.730469 253.8125 C 95.355469 252.875 94.316406 250.695312 94.175781 248.0625 C 93.976562 244.410156 95.574219 241.265625 97.742188 241.054688 C 98.242188 241.003906 98.730469 241.117188 99.191406 241.367188 C 100.574219 242.296875 101.613281 244.480469 101.761719 247.125 C 101.957031 250.78125 100.363281 253.917969 98.199219 254.132812 C 98.648438 254.089844 98.855469 254.113281 99.542969 254.042969 C 101.699219 253.828125 103.289062 250.710938 103.085938 247.078125 C 102.902344 243.667969 101.207031 241.019531 99.226562 240.875 C 99.09375 240.867188 98.046875 240.824219 97.542969 240.886719 C 97.558594 240.886719 97.597656 240.886719 97.632812 240.890625 C 97.578125 240.890625 97.523438 240.886719 97.472656 240.890625 C 95.304688 241.105469 93.710938 244.242188 93.910156 247.902344 Z M 101.257812 247.148438 C 101.433594 250.40625 100.097656 253.210938 98.246094 253.511719 C 98.261719 253.511719 98.265625 253.511719 98.277344 253.507812 C 100.214844 253.316406 101.632812 250.433594 101.453125 247.066406 C 101.265625 243.695312 99.546875 241.121094 97.613281 241.3125 C 97.046875 241.367188 96.527344 241.65625 96.074219 242.117188 C 96.492188 241.738281 96.953125 241.507812 97.457031 241.457031 C 99.375 241.265625 101.070312 243.816406 101.257812 247.148438 Z M 213.148438 190.679688 C 209.726562 190.664062 206.617188 187.191406 206.207031 182.917969 C 205.792969 178.644531 208.234375 175.195312 211.660156 175.210938 C 215.089844 175.226562 218.199219 178.703125 218.609375 182.972656 C 219.023438 187.242188 216.578125 190.695312 213.148438 190.679688 Z M 212.648438 171.070312 C 207.734375 171.050781 204.226562 175.996094 204.816406 182.125 C 205.40625 188.253906 209.871094 193.238281 214.785156 193.261719 C 219.699219 193.285156 223.207031 188.332031 222.617188 182.203125 C 222.023438 176.074219 217.5625 171.089844 212.648438 171.070312 Z M 128.121094 97.671875 C 126.660156 70.902344 113 50.4375 97.617188 51.964844 C 93.121094 52.40625 88.984375 54.695312 85.402344 58.355469 C 88.679688 55.363281 92.386719 53.5 96.382812 53.105469 C 111.613281 51.59375 125.128906 71.851562 126.582031 98.351562 C 127.996094 124.246094 117.359375 146.503906 102.660156 148.917969 C 102.75 148.910156 102.832031 148.910156 102.921875 148.902344 C 118.304688 147.378906 129.585938 124.441406 128.121094 97.671875 Z M 146.503906 67.175781 C 146.523438 67.179688 146.542969 67.183594 146.554688 67.1875 C 146.5625 67.1875 146.566406 67.191406 146.566406 67.191406 C 146.554688 67.1875 146.527344 67.183594 146.503906 67.175781 Z M 146.460938 79.421875 C 146.878906 79.378906 147.0625 79.402344 147.707031 79.339844 C 149.707031 79.140625 151.179688 76.242188 150.992188 72.867188 C 150.824219 69.703125 149.257812 67.242188 147.410156 67.113281 C 147.292969 67.101562 146.316406 67.0625 145.847656 67.121094 C 145.847656 67.121094 145.859375 67.121094 145.867188 67.121094 C 145.835938 67.121094 145.8125 67.121094 145.78125 67.125 C 143.769531 67.324219 142.285156 70.242188 142.476562 73.632812 C 142.617188 76.234375 143.695312 78.359375 145.09375 79.125 C 143.816406 78.253906 142.855469 76.226562 142.722656 73.789062 C 142.539062 70.390625 144.019531 67.476562 146.03125 67.277344 C 146.496094 67.230469 146.949219 67.335938 147.367188 67.5625 C 148.660156 68.425781 149.628906 70.453125 149.765625 72.914062 C 149.949219 76.304688 148.46875 79.222656 146.460938 79.421875 Z M 95.761719 78.8125 C 95.914062 78.816406 96.066406 78.816406 96.21875 78.828125 C 96.183594 78.824219 96.148438 78.820312 96.117188 78.820312 C 96 78.8125 95.878906 78.816406 95.761719 78.8125 Z M 205.410156 164.671875 C 202.730469 164.660156 200.296875 161.941406 199.980469 158.605469 C 199.652344 155.265625 201.566406 152.566406 204.242188 152.578125 C 206.921875 152.589844 209.355469 155.304688 209.675781 158.644531 C 210 161.984375 208.085938 164.683594 205.410156 164.671875 Z M 205.015625 149.339844 C 201.171875 149.324219 198.429688 153.191406 198.890625 157.988281 C 199.351562 162.777344 202.84375 166.671875 206.6875 166.691406 C 210.53125 166.707031 213.269531 162.839844 212.808594 158.046875 C 212.347656 153.253906 208.855469 149.355469 205.015625 149.339844 Z M 212.140625 223.671875 L 195.589844 222.972656 C 195.589844 222.972656 190.722656 222.039062 194.308594 226.125 C 197.894531 230.207031 203.691406 237.0625 203.691406 237.0625 C 203.691406 237.0625 204.914062 238.324219 205.65625 238.230469 C 206.40625 238.140625 207.082031 236.816406 207.082031 236.816406 C 207.082031 236.816406 212.363281 228.117188 213.449219 226.296875 C 215.117188 223.53125 212.140625 223.671875 212.140625 223.671875 Z M 254.621094 152.214844 L 256.921875 175.394531 C 258.457031 172.144531 259.167969 168.167969 258.753906 163.875 C 258.332031 159.523438 256.832031 155.5 254.621094 152.214844 Z M 86.699219 108.351562 C 87.070312 108.316406 87.234375 108.339844 87.804688 108.277344 C 89.574219 108.105469 90.871094 105.546875 90.710938 102.5625 C 90.5625 99.765625 89.171875 97.585938 87.542969 97.46875 C 87.433594 97.460938 86.578125 97.429688 86.15625 97.480469 C 86.15625 97.480469 86.171875 97.480469 86.179688 97.480469 C 86.15625 97.480469 86.128906 97.480469 86.105469 97.480469 C 84.324219 97.660156 83.011719 100.234375 83.179688 103.238281 C 83.300781 105.535156 84.257812 107.410156 85.492188 108.089844 C 84.363281 107.324219 83.515625 105.53125 83.398438 103.375 C 83.234375 100.371094 84.542969 97.792969 86.324219 97.617188 C 86.734375 97.578125 87.132812 97.667969 87.507812 97.871094 C 88.644531 98.628906 89.503906 100.429688 89.621094 102.597656 C 89.789062 105.601562 88.476562 108.179688 86.699219 108.351562 Z M 160.761719 14.964844 C 160.453125 14.949219 160.144531 14.953125 159.832031 14.949219 C 160.234375 14.953125 160.628906 14.953125 161.03125 14.984375 C 160.9375 14.976562 160.835938 14.972656 160.761719 14.964844 Z M 144.792969 23.808594 C 148.46875 20.460938 152.613281 18.375 157.085938 17.929688 C 174.121094 16.242188 189.253906 38.914062 190.875 68.566406 C 192.457031 97.546875 180.554688 122.457031 164.109375 125.15625 C 164.207031 125.148438 164.304688 125.148438 164.398438 125.140625 C 181.613281 123.433594 194.242188 97.765625 192.601562 67.808594 C 190.964844 37.851562 175.679688 14.949219 158.464844 16.65625 C 153.433594 17.152344 148.800781 19.710938 144.792969 23.808594 Z M 156.898438 46.71875 C 156.859375 46.714844 156.816406 46.710938 156.785156 46.707031 C 156.652344 46.703125 156.519531 46.703125 156.390625 46.703125 C 156.554688 46.703125 156.726562 46.703125 156.898438 46.71875 Z M 94.867188 79.691406 C 94.933594 79.707031 95 79.71875 95.050781 79.726562 C 95.082031 79.738281 95.105469 79.75 95.136719 79.753906 C 95.050781 79.734375 94.957031 79.71875 94.867188 79.691406 Z M 89.527344 86.992188 C 89.546875 87 89.5625 87.007812 89.585938 87.011719 C 89.523438 86.996094 89.464844 86.988281 89.410156 86.96875 C 89.453125 86.976562 89.5 86.988281 89.527344 86.992188 Z M 99.230469 123.824219 C 106.488281 123.101562 111.828125 112.589844 111.164062 100.347656 C 110.535156 88.867188 104.84375 79.9375 98.152344 79.460938 C 97.71875 79.429688 94.199219 79.285156 92.476562 79.488281 C 92.492188 79.492188 92.535156 79.496094 92.5625 79.5 C 92.457031 79.503906 92.355469 79.503906 92.25 79.511719 C 87.320312 80.003906 83.28125 84.988281 81.375 91.960938 C 79.84375 94.9375 79.007812 98.9375 79.246094 103.25 C 79.480469 107.589844 80.757812 111.394531 82.613281 114.039062 C 84.339844 118.246094 86.847656 121.453125 89.75 123.042969 C 87.484375 121.496094 85.511719 118.9375 84.011719 115.703125 C 84.589844 116.269531 85.203125 116.734375 85.847656 117.085938 C 85.089844 116.570312 84.378906 115.886719 83.726562 115.070312 C 83.683594 114.96875 83.636719 114.875 83.59375 114.769531 C 83.222656 114.34375 82.886719 113.859375 82.558594 113.347656 C 81.078125 110.792969 80.082031 107.410156 79.875 103.632812 C 79.410156 95.074219 83.140625 87.730469 88.214844 87.226562 C 89.382812 87.105469 90.523438 87.375 91.589844 87.945312 C 94.835938 90.121094 97.28125 95.238281 97.621094 101.433594 C 98.089844 109.988281 94.351562 117.335938 89.28125 117.835938 C 90.339844 117.734375 90.8125 117.789062 92.433594 117.628906 C 97.476562 117.128906 101.191406 109.824219 100.722656 101.320312 C 100.285156 93.339844 96.332031 87.136719 91.6875 86.808594 C 91.382812 86.785156 88.941406 86.683594 87.738281 86.828125 C 87.753906 86.828125 87.777344 86.828125 87.800781 86.832031 C 87.726562 86.832031 87.660156 86.832031 87.585938 86.839844 C 86.082031 86.992188 84.699219 87.753906 83.503906 88.960938 C 85.667969 83.894531 89.113281 80.464844 93.15625 80.0625 C 94.835938 79.898438 96.460938 80.273438 97.988281 81.082031 C 102.671875 84.207031 106.207031 91.582031 106.695312 100.507812 C 107.367188 112.828125 101.992188 123.394531 94.691406 124.121094 C 96.210938 123.972656 96.894531 124.050781 99.230469 123.824219 Z M 140.808594 126.070312 L 145.148438 131.113281 C 145.148438 131.113281 146.414062 132.371094 144.644531 133.132812 C 142.871094 133.890625 137.550781 136.144531 137.550781 136.144531 C 137.550781 136.144531 136.039062 136.804688 136.804688 134.515625 C 137.578125 132.226562 139.492188 126.519531 139.492188 126.519531 C 139.492188 126.519531 139.695312 124.867188 140.808594 126.070312 Z M 136.886719 123.53125 C 136.886719 123.53125 134.058594 132.597656 132.796875 136.34375 C 131.539062 140.085938 134.019531 139.003906 134.019531 139.003906 C 134.019531 139.003906 142.722656 135.316406 145.625 134.078125 C 148.523438 132.835938 146.449219 130.769531 146.449219 130.769531 L 139.351562 122.523438 C 137.523438 120.558594 136.886719 123.53125 136.886719 123.53125 Z M 94.863281 122.027344 C 94.898438 122.023438 94.933594 122.023438 94.972656 122.023438 C 101.492188 121.371094 106.273438 111.652344 105.652344 100.3125 C 105.03125 88.960938 99.242188 80.292969 92.722656 80.9375 C 90.820312 81.128906 89.0625 82.09375 87.546875 83.644531 C 88.9375 82.378906 90.503906 81.585938 92.199219 81.421875 C 98.652344 80.78125 104.382812 89.367188 105 100.597656 C 105.59375 111.574219 101.089844 121.003906 94.863281 122.027344 Z M 84.261719 170.054688 C 84.273438 170.058594 84.285156 170.0625 84.292969 170.0625 C 84.261719 170.058594 84.230469 170.050781 84.199219 170.039062 C 84.222656 170.046875 84.246094 170.050781 84.261719 170.054688 Z M 58.472656 185.988281 L 78.507812 178.511719 C 78.507812 178.71875 78.507812 178.921875 78.523438 179.132812 C 78.539062 179.480469 78.574219 179.816406 78.617188 180.148438 Z M 61.976562 195.234375 C 58.820312 195.546875 55.925781 192.398438 55.507812 188.203125 C 55.457031 187.65625 55.449219 187.128906 55.480469 186.605469 C 54.472656 186.238281 52.074219 185.472656 49.769531 185.613281 C 50.867188 184.871094 54.414062 184.753906 55.785156 184.742188 C 55.804688 184.652344 55.824219 184.566406 55.851562 184.484375 C 54.980469 184.089844 52.847656 183.382812 48.765625 183.457031 C 50.78125 182.527344 55.1875 182.472656 56.773438 182.484375 C 56.804688 182.425781 56.847656 182.367188 56.886719 182.3125 C 55.804688 181.902344 52.929688 180.96875 49.664062 181.117188 C 53.335938 179.9375 56.765625 180.738281 57.992188 181.105469 C 58.707031 180.511719 59.546875 180.128906 60.464844 180.039062 C 61.019531 179.984375 61.558594 180.050781 62.085938 180.195312 C 61.566406 180.382812 61.25 180.496094 61.207031 180.507812 C 58.398438 181.195312 56.492188 184.015625 56.863281 187.8125 C 57.246094 191.851562 59.96875 194.597656 63.152344 194.941406 C 62.777344 195.089844 62.386719 195.195312 61.976562 195.234375 Z M 78.601562 176.726562 C 78.539062 177.261719 78.503906 177.8125 78.503906 178.382812 L 57.683594 184.742188 Z M 85.515625 166.898438 C 85.027344 166.921875 84.667969 166.941406 84.492188 166.957031 C 81.460938 167.253906 79.234375 170.824219 78.792969 175.496094 C 78.710938 175.867188 78.65625 176.246094 78.605469 176.632812 L 58.855469 183.167969 L 78.714844 175.4375 C 78.765625 174.972656 78.824219 174.515625 78.90625 174.074219 C 73.589844 175.996094 66.089844 178.742188 62.828125 179.925781 C 60.351562 178.40625 57.164062 177.78125 54.011719 178.089844 C 47.78125 178.714844 44.207031 183.8125 44.855469 190.328125 C 45.496094 196.835938 50.816406 201.933594 57.050781 201.316406 C 60.824219 200.945312 64.023438 198.148438 65.816406 194.554688 C 69.109375 193.53125 78.0625 190.644531 83.460938 188.90625 C 83.691406 189.074219 83.933594 189.234375 84.175781 189.363281 C 83.960938 189.21875 83.75 189.054688 83.542969 188.878906 C 83.554688 188.875 83.566406 188.871094 83.582031 188.867188 C 83.433594 188.761719 83.292969 188.636719 83.152344 188.515625 C 82.527344 187.910156 81.945312 187.167969 81.429688 186.308594 C 81.683594 186.523438 81.941406 186.710938 82.207031 186.859375 C 81.367188 186.285156 80.625 185.339844 80.054688 184.152344 C 79.632812 183.179688 79.304688 182.105469 79.066406 180.96875 C 78.976562 180.449219 78.90625 179.90625 78.875 179.34375 C 78.609375 174.566406 80.695312 170.464844 83.527344 170.183594 C 84.1875 170.117188 84.816406 170.265625 85.414062 170.585938 C 87.226562 171.800781 88.59375 174.660156 88.78125 178.117188 C 89.042969 182.894531 86.957031 186.996094 84.125 187.277344 C 84.714844 187.21875 84.980469 187.253906 85.886719 187.160156 C 88.703125 186.878906 90.773438 182.804688 90.511719 178.054688 C 90.269531 173.601562 88.0625 170.136719 85.46875 169.949219 C 85.296875 169.9375 83.933594 169.882812 83.265625 169.960938 C 83.277344 169.964844 83.285156 169.964844 83.285156 169.964844 C 83.261719 169.96875 83.214844 169.96875 83.179688 169.972656 C 81.914062 170.097656 80.800781 170.988281 79.972656 172.359375 C 80.949219 169.457031 82.746094 167.457031 84.976562 167.238281 C 85.78125 167.15625 86.582031 167.332031 87.34375 167.695312 C 87.429688 167.738281 87.519531 167.78125 87.605469 167.832031 C 90.058594 169.46875 92.011719 173.226562 92.464844 177.757812 C 93.09375 184.101562 90.539062 189.542969 86.765625 189.917969 C 86.886719 189.90625 87.253906 189.886719 87.789062 189.871094 L 92.460938 236.984375 C 91 239.929688 90.210938 243.832031 90.441406 248.035156 C 90.714844 253.054688 92.382812 257.367188 94.742188 259.96875 L 95.5625 268.253906 L 94.984375 260.230469 C 95.621094 260.886719 96.300781 261.425781 97.011719 261.816406 C 93.8125 259.628906 91.402344 254.546875 91.0625 248.414062 C 90.597656 239.886719 94.316406 232.570312 99.375 232.066406 C 100.433594 231.96875 101.457031 232.183594 102.4375 232.648438 C 105.753906 234.695312 108.296875 239.984375 108.648438 246.402344 C 108.8125 249.382812 108.472656 252.203125 107.757812 254.648438 C 106.367188 259.105469 103.679688 262.242188 100.4375 262.5625 C 101.492188 262.460938 106.253906 262.335938 107.871094 262.179688 C 112.890625 261.683594 116.601562 254.511719 116.140625 246.035156 C 115.703125 238.089844 111.777344 232.015625 107.144531 231.683594 C 106.84375 231.660156 99.464844 231.667969 99.394531 231.667969 C 99.179688 231.664062 98.964844 231.667969 98.746094 231.6875 C 96.582031 231.902344 94.667969 233.375 93.21875 235.644531 L 89.921875 189.796875 C 93.597656 189.679688 99.210938 189.523438 100.042969 189.441406 C 103.796875 189.070312 106.332031 183.65625 105.707031 177.355469 C 105.121094 171.445312 101.964844 166.851562 98.484375 166.605469 C 98.324219 166.59375 92.398438 166.703125 88.273438 166.8125 L 88.070312 163.984375 L 165.640625 130.195312 L 85.035156 162.058594 Z M 148.164062 203.097656 C 148.117188 203.097656 148.0625 203.097656 148.015625 203.097656 C 148.078125 203.097656 148.144531 203.097656 148.207031 203.101562 C 148.207031 203.101562 148.179688 203.101562 148.164062 203.097656 Z M 140.800781 199.882812 C 140.835938 199.878906 140.867188 199.882812 140.902344 199.875 C 146.992188 199.273438 151.460938 190.191406 150.878906 179.59375 C 150.300781 169 144.894531 160.902344 138.804688 161.5 C 137.023438 161.679688 135.382812 162.582031 133.96875 164.03125 C 135.269531 162.851562 136.734375 162.109375 138.3125 161.953125 C 144.34375 161.359375 149.691406 169.375 150.265625 179.867188 C 150.828125 190.117188 146.613281 198.929688 140.800781 199.882812 Z M 156.320312 265.03125 C 156.296875 265.03125 156.269531 265.03125 156.25 265.03125 C 156.167969 265.027344 156.085938 265.027344 156.007812 265.027344 C 156.113281 265.027344 156.21875 265.027344 156.320312 265.03125 Z M 147.140625 209.25 C 147.074219 209.246094 146.558594 209.222656 146.304688 209.253906 L 146.316406 209.253906 C 146.300781 209.257812 146.289062 209.257812 146.269531 209.257812 C 145.199219 209.363281 144.410156 210.910156 144.511719 212.71875 C 144.585938 214.101562 145.160156 215.230469 145.90625 215.640625 C 145.230469 215.175781 144.714844 214.097656 144.644531 212.800781 C 144.546875 210.992188 145.332031 209.441406 146.402344 209.335938 C 146.652344 209.3125 146.890625 209.371094 147.117188 209.488281 C 147.804688 209.945312 148.316406 211.027344 148.390625 212.332031 C 148.492188 214.140625 147.699219 215.691406 146.632812 215.796875 C 146.855469 215.777344 146.953125 215.789062 147.296875 215.753906 C 148.363281 215.644531 149.144531 214.105469 149.042969 212.3125 C 148.953125 210.628906 148.121094 209.316406 147.140625 209.25 Z M 148.132812 203.246094 C 148.15625 203.246094 148.183594 203.253906 148.207031 203.257812 C 148.21875 203.257812 148.222656 203.265625 148.234375 203.265625 C 148.203125 203.257812 148.171875 203.253906 148.132812 203.246094 Z M 149.488281 203.148438 C 149.304688 203.136719 147.847656 203.074219 147.140625 203.160156 C 147.148438 203.160156 147.164062 203.160156 147.171875 203.164062 C 147.128906 203.164062 147.089844 203.164062 147.046875 203.171875 C 144.023438 203.46875 141.804688 207.84375 142.082031 212.941406 C 142.289062 216.839844 143.910156 220.027344 146.007812 221.179688 C 144.097656 219.871094 142.65625 216.832031 142.457031 213.167969 C 142.171875 208.070312 144.398438 203.699219 147.421875 203.394531 C 148.117188 203.328125 148.792969 203.488281 149.429688 203.824219 C 151.363281 205.121094 152.820312 208.167969 153.023438 211.855469 C 153.296875 216.953125 151.078125 221.320312 148.054688 221.628906 C 148.683594 221.5625 148.972656 221.597656 149.933594 221.5 C 152.933594 221.203125 155.140625 216.855469 154.867188 211.789062 C 154.605469 207.039062 152.253906 203.347656 149.488281 203.148438 Z M 140.816406 160.34375 C 140.871094 160.351562 140.933594 160.363281 140.972656 160.375 C 141 160.378906 141.023438 160.390625 141.046875 160.398438 C 140.972656 160.378906 140.894531 160.363281 140.816406 160.34375 Z M 135.820312 167.160156 C 135.835938 167.160156 135.851562 167.171875 135.871094 167.171875 C 135.816406 167.160156 135.761719 167.148438 135.707031 167.136719 C 135.753906 167.148438 135.792969 167.148438 135.820312 167.160156 Z M 143.875 160.125 C 143.464844 160.09375 140.179688 159.960938 138.566406 160.152344 C 138.589844 160.15625 138.625 160.15625 138.652344 160.160156 C 138.554688 160.164062 138.453125 160.164062 138.363281 160.171875 C 133.761719 160.632812 129.984375 165.285156 128.210938 171.792969 C 126.773438 174.574219 125.996094 178.316406 126.214844 182.347656 C 126.433594 186.417969 127.640625 189.988281 129.390625 192.460938 C 130.996094 196.367188 133.324219 199.351562 136.023438 200.835938 C 133.910156 199.386719 132.058594 196.996094 130.65625 193.96875 C 131.203125 194.5 131.777344 194.941406 132.382812 195.269531 C 129.375 193.21875 127.117188 188.449219 126.804688 182.699219 C 126.363281 174.707031 129.851562 167.847656 134.59375 167.375 C 135.683594 167.265625 136.742188 167.515625 137.742188 168.050781 C 140.773438 170.078125 143.058594 174.859375 143.375 180.644531 C 143.8125 188.640625 140.324219 195.5 135.589844 195.96875 C 136.574219 195.875 137.015625 195.925781 138.535156 195.773438 C 143.242188 195.304688 146.710938 188.488281 146.277344 180.539062 C 145.867188 173.089844 142.171875 167.296875 137.835938 166.984375 C 137.550781 166.964844 135.265625 166.871094 134.144531 167.003906 C 134.164062 167.007812 134.183594 167.007812 134.207031 167.011719 C 134.136719 167.011719 134.070312 167.011719 134.003906 167.019531 C 132.601562 167.15625 131.308594 167.871094 130.195312 168.996094 C 132.214844 164.265625 135.429688 161.0625 139.207031 160.683594 C 140.769531 160.535156 142.285156 160.878906 143.714844 161.636719 C 148.09375 164.546875 151.394531 171.445312 151.851562 179.785156 C 152.480469 191.289062 147.460938 201.164062 140.640625 201.839844 C 142.0625 201.703125 142.699219 201.777344 144.878906 201.5625 C 151.660156 200.890625 156.652344 191.070312 156.027344 179.632812 C 155.4375 168.910156 150.128906 160.570312 143.875 160.125 Z M 82.789062 181.808594 C 83 181.792969 83.097656 181.800781 83.414062 181.773438 C 84.410156 181.671875 85.148438 180.226562 85.054688 178.542969 C 84.96875 176.960938 84.1875 175.738281 83.265625 175.671875 C 83.207031 175.667969 82.722656 175.644531 82.484375 175.675781 C 82.484375 175.675781 82.492188 175.675781 82.5 175.675781 C 82.5 175.675781 82.464844 175.675781 82.453125 175.675781 C 81.449219 175.777344 80.710938 177.230469 80.800781 178.929688 C 80.875 180.222656 81.414062 181.28125 82.105469 181.664062 C 81.472656 181.226562 80.992188 180.214844 80.925781 179.003906 C 80.832031 177.304688 81.574219 175.855469 82.578125 175.753906 C 82.808594 175.734375 83.03125 175.78125 83.246094 175.894531 C 83.890625 176.328125 84.371094 177.339844 84.441406 178.566406 C 84.53125 180.257812 83.792969 181.710938 82.789062 181.808594 Z M 166.542969 341.5 L 136.242188 342.742188 L 166.1875 338.796875 L 135.234375 340.496094 L 158.046875 336.667969 L 136.144531 337.761719 L 152.175781 334.707031 L 137.09375 335.34375 C 134.992188 337.101562 133.761719 340.214844 134.101562 343.621094 C 134.410156 346.753906 135.976562 349.382812 138.101562 350.800781 L 141.335938 344.078125 L 159.8125 342.441406 Z M 133.351562 186.824219 C 133.703125 186.792969 133.859375 186.8125 134.398438 186.757812 C 136.0625 186.59375 137.292969 184.175781 137.140625 181.359375 C 136.992188 178.71875 135.6875 176.664062 134.144531 176.554688 C 134.046875 176.542969 133.238281 176.511719 132.84375 176.558594 C 132.84375 176.558594 132.859375 176.558594 132.863281 176.5625 C 132.839844 176.5625 132.816406 176.558594 132.789062 176.5625 C 131.109375 176.730469 129.875 179.164062 130.027344 181.996094 C 130.144531 184.167969 131.046875 185.941406 132.214844 186.582031 C 131.148438 185.851562 130.347656 184.160156 130.234375 182.125 C 130.082031 179.289062 131.320312 176.855469 133 176.691406 C 133.386719 176.652344 133.761719 176.742188 134.117188 176.929688 C 135.195312 177.652344 136 179.34375 136.113281 181.394531 C 136.265625 184.226562 135.03125 186.664062 133.351562 186.824219 Z M 135.824219 166.917969 C 135.800781 166.914062 135.773438 166.910156 135.757812 166.90625 C 135.679688 166.90625 135.605469 166.90625 135.527344 166.90625 C 135.625 166.90625 135.722656 166.90625 135.824219 166.917969 Z M 115.273438 231.539062 L 109.164062 169.914062 L 155.074219 151.765625 L 161.992188 221.523438 Z M 108.078125 168.644531 L 114.753906 235.941406 L 166.859375 226.066406 L 159.164062 148.449219 Z M 84.261719 169.910156 C 84.261719 169.910156 84.238281 169.910156 84.226562 169.90625 C 84.179688 169.902344 84.136719 169.902344 84.089844 169.902344 C 84.148438 169.902344 84.210938 169.90625 84.261719 169.910156 Z M 123.542969 212.171875 C 123.355469 208.757812 121.566406 206.15625 119.546875 206.355469 C 117.523438 206.554688 116.042969 209.484375 116.226562 212.898438 C 116.414062 216.308594 118.203125 218.917969 120.222656 218.714844 C 122.242188 218.515625 123.730469 215.585938 123.542969 212.171875 Z M 141.96875 159.523438 C 141.863281 159.519531 141.75 159.519531 141.640625 159.519531 C 141.785156 159.523438 141.925781 159.523438 142.070312 159.53125 C 142.035156 159.53125 142 159.527344 141.96875 159.523438 Z M 170.316406 326.574219 C 159.863281 327.613281 150.390625 328.761719 143.375 329.804688 C 143.476562 328.675781 155.390625 326.597656 170.171875 325.132812 C 184.960938 323.671875 197.050781 323.367188 197.367188 324.453125 C 190.289062 324.808594 180.769531 325.539062 170.316406 326.574219 Z M 177.601562 346.429688 C 175.019531 346.683594 172.671875 344.449219 172.144531 341.359375 C 172.625 344.015625 174.65625 345.921875 176.882812 345.699219 C 179.253906 345.464844 180.9375 342.902344 180.648438 339.96875 C 180.351562 337.035156 178.199219 334.851562 175.828125 335.085938 C 173.609375 335.304688 171.988281 337.578125 172.03125 340.269531 C 171.949219 337.136719 173.8125 334.484375 176.390625 334.234375 C 179.109375 333.960938 181.59375 336.472656 181.925781 339.84375 C 182.257812 343.210938 180.320312 346.160156 177.601562 346.429688 Z M 150.546875 316.46875 L 146.476562 324.898438 C 146.039062 324.96875 145.617188 325.042969 145.210938 325.113281 Z M 148.347656 324.601562 C 147.726562 324.695312 147.144531 324.789062 146.585938 324.882812 L 152.078125 315.953125 Z M 150.621094 324.257812 C 149.894531 324.363281 149.191406 324.46875 148.523438 324.570312 L 153.972656 315.40625 Z M 153.265625 323.882812 C 152.421875 323.996094 151.609375 324.113281 150.832031 324.226562 L 155.765625 315.300781 Z M 155.871094 323.527344 C 155.054688 323.636719 154.257812 323.746094 153.492188 323.851562 L 157.542969 315.054688 Z M 158.890625 323.140625 C 157.957031 323.253906 157.050781 323.375 156.171875 323.488281 L 159.40625 315.011719 Z M 161.703125 322.789062 C 160.871094 322.890625 160.070312 322.992188 159.28125 323.089844 L 161.390625 314.671875 Z M 163.636719 314.472656 L 164.679688 322.429688 C 163.84375 322.53125 163.027344 322.628906 162.222656 322.726562 Z M 166.679688 314.222656 L 167.957031 322.050781 C 167.0625 322.152344 166.175781 322.253906 165.308594 322.359375 Z M 169.703125 313.820312 L 171.160156 321.691406 C 170.28125 321.789062 169.425781 321.886719 168.578125 321.980469 Z M 173.058594 313.535156 L 174.792969 321.300781 C 173.796875 321.40625 172.820312 321.511719 171.851562 321.617188 Z M 176.324219 313.292969 L 178.570312 320.90625 C 177.527344 321.011719 176.492188 321.117188 175.476562 321.226562 Z M 166.632812 350.300781 C 169.464844 350.117188 171.921875 349.949219 173.539062 349.835938 C 171.917969 349.949219 169.460938 350.117188 166.632812 350.300781 Z M 155.828125 265.3125 C 155.84375 265.316406 155.867188 265.328125 155.882812 265.332031 C 155.824219 265.316406 155.769531 265.304688 155.710938 265.292969 C 155.753906 265.300781 155.796875 265.304688 155.828125 265.3125 Z M 143.140625 273.101562 C 143.144531 273.101562 143.15625 273.105469 143.167969 273.109375 C 143.132812 273.101562 143.105469 273.09375 143.074219 273.085938 C 143.09375 273.09375 143.121094 273.09375 143.140625 273.101562 Z M 138.425781 285.890625 C 138.417969 285.890625 138.417969 285.882812 138.417969 285.878906 L 138.394531 285.898438 C 138.300781 285.617188 138.222656 285.324219 138.148438 285.023438 L 138.160156 285.015625 C 138.15625 285.007812 138.152344 285 138.152344 284.984375 L 138.140625 284.996094 C 138.023438 284.535156 137.933594 284.0625 137.863281 283.570312 C 138.003906 284.375 138.1875 285.15625 138.425781 285.890625 Z M 138.597656 286.421875 C 138.53125 286.257812 138.460938 286.097656 138.402344 285.925781 L 138.429688 285.910156 C 138.480469 286.082031 138.535156 286.253906 138.597656 286.421875 Z M 103.75 309.535156 L 138.183594 286.074219 C 138.300781 286.390625 138.429688 286.699219 138.566406 286.988281 Z M 107.246094 314.554688 C 105.679688 315.621094 103.25 314.792969 101.824219 312.703125 C 100.398438 310.609375 100.519531 308.050781 102.089844 306.980469 C 102.515625 306.6875 103.007812 306.554688 103.515625 306.53125 C 103.023438 306.863281 102.738281 307.054688 102.714844 307.070312 C 101.261719 308.0625 101.148438 310.4375 102.46875 312.375 C 103.789062 314.3125 106.039062 315.078125 107.496094 314.085938 C 107.496094 314.085938 107.671875 313.96875 107.964844 313.777344 C 107.777344 314.074219 107.546875 314.347656 107.246094 314.554688 Z M 137.902344 285.191406 C 137.984375 285.480469 138.066406 285.773438 138.167969 286.042969 L 103.902344 308.519531 Z M 137.742188 284.597656 C 137.789062 284.785156 137.839844 284.96875 137.890625 285.15625 L 104.222656 307.492188 Z M 77.433594 324.324219 L 98.675781 311.003906 C 98.757812 311.433594 98.875 311.867188 99.042969 312.300781 Z M 98.5625 309.527344 C 98.539062 309.992188 98.578125 310.476562 98.671875 310.964844 L 78.230469 322.417969 Z M 232.371094 333.335938 C 231.921875 328.816406 228.636719 325.339844 224.664062 324.792969 L 224.011719 318.203125 L 223.972656 318.207031 C 223.988281 318.183594 224.007812 318.160156 224.003906 318.140625 C 223.984375 317.910156 222.839844 317.796875 220.800781 317.796875 C 219.582031 316.222656 213.78125 309.46875 213.761719 309.292969 C 213.726562 308.953125 204.125 308.65625 191.007812 309.488281 L 189.800781 296.96875 C 190.359375 296.914062 190.761719 296.867188 190.953125 296.851562 C 197.539062 296.199219 202.070312 287.484375 200.972656 276.421875 C 200.210938 268.78125 197.023438 262.585938 192.945312 259.675781 L 231.753906 252.253906 L 178.035156 255.230469 L 95.816406 270.816406 L 148.496094 267.378906 C 148.1875 268.113281 147.910156 268.890625 147.671875 269.710938 C 145.71875 269.832031 143.929688 269.949219 143.367188 270 C 140.308594 270.304688 138.0625 273.914062 137.640625 278.640625 C 137.421875 279.738281 137.328125 280.933594 137.398438 282.175781 C 137.425781 282.773438 137.507812 283.339844 137.605469 283.890625 C 128.90625 289.609375 110.320312 301.996094 104.496094 305.878906 C 103.023438 305.261719 101.484375 305.277344 100.304688 306.082031 C 99.515625 306.617188 98.996094 307.425781 98.742188 308.371094 C 93.695312 311.105469 78.242188 320.007812 77.886719 320.25 C 75.382812 321.953125 75.195312 326.03125 77.460938 329.355469 C 79.347656 332.121094 82.332031 333.492188 84.726562 332.898438 C 85.386719 332.777344 86.109375 332.527344 86.851562 332.070312 C 87.15625 331.886719 87.429688 331.675781 87.667969 331.453125 C 88.011719 331.136719 100.535156 320.671875 104.828125 317.175781 C 105.765625 317.261719 106.667969 317.074219 107.429688 316.554688 C 108.546875 315.792969 109.121094 314.480469 109.15625 312.992188 C 115.074219 309.105469 135.214844 295.871094 141.835938 291.5625 C 142.226562 291.898438 142.628906 292.1875 143.050781 292.410156 C 142.015625 291.726562 141.066406 290.664062 140.28125 289.328125 C 140.539062 289.554688 140.804688 289.75 141.082031 289.90625 C 140.730469 289.664062 140.402344 289.34375 140.085938 288.988281 C 139.101562 287.1875 138.394531 284.929688 138.152344 282.441406 C 137.984375 280.789062 138.042969 279.199219 138.277344 277.746094 C 139.046875 275.207031 140.566406 273.414062 142.402344 273.230469 C 143.054688 273.164062 143.691406 273.3125 144.28125 273.628906 C 146.101562 274.847656 147.464844 277.703125 147.652344 281.160156 C 147.917969 285.941406 145.828125 290.042969 143 290.324219 C 143.589844 290.265625 143.851562 290.296875 144.761719 290.203125 C 147.578125 289.929688 149.648438 285.847656 149.386719 281.097656 C 149.144531 276.644531 146.941406 273.179688 144.34375 272.996094 C 144.171875 272.984375 142.808594 272.929688 142.136719 273.007812 C 142.144531 273.011719 142.160156 273.011719 142.160156 273.011719 C 142.128906 273.011719 142.09375 273.011719 142.050781 273.019531 C 140.789062 273.140625 139.671875 274.03125 138.847656 275.402344 C 139.820312 272.5 141.613281 270.503906 143.847656 270.28125 C 144.71875 270.195312 145.574219 270.394531 146.386719 270.816406 C 148.886719 272.425781 150.882812 276.21875 151.335938 280.804688 C 151.964844 287.144531 149.417969 292.589844 145.640625 292.960938 C 146.015625 292.925781 147.992188 292.777344 150.097656 292.617188 C 151.746094 295.640625 153.847656 297.945312 156.164062 299.179688 C 154.238281 297.910156 152.488281 295.882812 151.0625 293.335938 C 151.734375 293.996094 152.441406 294.53125 153.1875 294.90625 C 152.292969 294.339844 151.457031 293.542969 150.699219 292.570312 C 152.851562 292.410156 154.996094 292.246094 155.578125 292.191406 C 159.328125 291.816406 161.863281 286.40625 161.238281 280.105469 C 160.652344 274.191406 157.496094 269.597656 154.015625 269.355469 C 153.902344 269.34375 151.667969 269.46875 149.257812 269.613281 C 150.609375 267.351562 152.4375 265.863281 154.542969 265.582031 C 155.6875 265.433594 156.8125 265.65625 157.875 266.179688 C 161.125 268.207031 163.683594 273.140625 164.210938 279.191406 C 164.945312 287.558594 161.527344 294.875 156.574219 295.53125 C 157.601562 295.394531 158.074219 295.433594 159.65625 295.222656 C 164.578125 294.574219 167.976562 287.304688 167.25 278.984375 C 166.566406 271.1875 162.496094 265.242188 157.933594 265.0625 C 157.628906 265.050781 155.238281 265.03125 154.066406 265.210938 C 154.085938 265.214844 154.105469 265.210938 154.125 265.210938 C 154.054688 265.21875 153.984375 265.21875 153.917969 265.226562 C 152 265.484375 150.324219 266.742188 149.011719 268.667969 C 150.765625 263.9375 153.816406 260.71875 157.566406 260.347656 C 159.085938 260.199219 160.597656 260.542969 162.027344 261.285156 C 166.40625 264.109375 169.910156 270.761719 170.707031 278.8125 C 171.8125 289.941406 167.332031 299.492188 160.707031 300.144531 C 161.234375 300.097656 165.375 299.644531 170.441406 299.089844 C 171.0625 298.476562 177.589844 292.292969 185.363281 291.609375 C 187.714844 291.523438 189.472656 293.082031 189.574219 294.703125 L 189.632812 295.289062 C 189.535156 293.664062 187.894531 293.359375 185.546875 293.4375 C 177.363281 294.160156 170.375 299.148438 170.375 299.148438 L 171.554688 311.417969 C 158.527344 313.171875 149.171875 315.355469 149.207031 315.691406 C 149.21875 315.839844 146.027344 321.550781 144.550781 324.308594 L 149.5 316.285156 L 145.121094 325.132812 C 144.789062 325.1875 144.472656 325.242188 144.171875 325.304688 L 144.023438 325.3125 C 144.023438 325.320312 144.015625 325.324219 144.011719 325.332031 C 141.523438 325.800781 140.140625 326.1875 140.167969 326.449219 C 140.171875 326.472656 140.191406 326.492188 140.21875 326.507812 L 140.171875 326.511719 L 140.902344 333.847656 C 140.730469 333.859375 140.585938 333.875 140.488281 333.886719 C 139.386719 333.996094 138.378906 334.410156 137.492188 335.042969 L 149.386719 333.222656 L 149.351562 333.21875 C 158.664062 332.550781 172.03125 331.617188 173.652344 331.453125 C 169.585938 331.859375 166.691406 336.269531 167.1875 341.304688 C 167.683594 346.339844 171.390625 350.09375 175.464844 349.6875 C 175.175781 349.71875 174.546875 349.765625 173.664062 349.832031 C 170.5 349.433594 169.367188 348.167969 169.367188 348.167969 L 165.28125 348.316406 L 164.449219 346.914062 L 167.96875 345.957031 L 164.078125 346.289062 L 163.160156 344.722656 L 167.089844 343.988281 L 162.820312 344.140625 L 161.71875 342.269531 L 160.59375 344.523438 L 160.21875 345.269531 L 159.519531 346.671875 L 159.226562 347.265625 L 158.578125 348.566406 L 158.128906 349.46875 L 151.683594 362.386719 L 160.175781 362.386719 L 163.546875 355.964844 L 163.113281 362.386719 L 185.371094 362.386719 L 187.132812 346.183594 L 200.050781 344.902344 C 201.179688 344.792969 201.855469 342.332031 201.566406 339.402344 C 201.472656 338.441406 201.28125 337.554688 201.03125 336.796875 C 201.347656 336.757812 201.660156 336.722656 201.976562 336.683594 C 201.914062 332.007812 204.925781 327.992188 209.132812 327.128906 C 209.410156 327.070312 209.695312 327.023438 209.980469 326.996094 C 210.273438 326.964844 210.5625 326.953125 210.855469 326.957031 C 210.953125 326.957031 211.050781 326.964844 211.148438 326.972656 C 211.335938 326.984375 211.523438 326.988281 211.710938 327.011719 C 211.828125 327.023438 211.945312 327.046875 212.066406 327.0625 C 212.226562 327.085938 212.386719 327.113281 212.546875 327.148438 C 212.671875 327.171875 212.796875 327.210938 212.925781 327.242188 C 213.066406 327.28125 213.210938 327.320312 213.355469 327.363281 C 213.488281 327.410156 213.617188 327.457031 213.742188 327.503906 C 213.871094 327.554688 213.996094 327.605469 214.121094 327.65625 C 214.261719 327.71875 214.394531 327.78125 214.535156 327.847656 C 214.640625 327.898438 214.75 327.957031 214.851562 328.015625 C 214.996094 328.09375 215.148438 328.175781 215.285156 328.261719 C 215.363281 328.3125 215.445312 328.371094 215.527344 328.421875 C 215.683594 328.527344 215.839844 328.632812 215.992188 328.746094 C 216.027344 328.777344 216.0625 328.804688 216.097656 328.835938 C 217.332031 329.804688 218.347656 331.097656 219.019531 332.621094 C 219.019531 332.628906 219.019531 332.628906 219.023438 332.636719 C 219.136719 332.890625 219.238281 333.152344 219.328125 333.417969 C 219.335938 333.425781 219.335938 333.433594 219.339844 333.441406 C 219.429688 333.710938 219.511719 333.984375 219.582031 334.261719 C 219.714844 334.777344 219.816406 335.300781 219.871094 335.847656 C 220.40625 341.226562 216.839844 345.980469 211.910156 346.46875 C 213.019531 346.359375 215.195312 345.914062 217.503906 345.40625 C 217.332031 345.484375 217.21875 345.527344 217.21875 345.527344 L 234.78125 362.386719 L 238.417969 362.386719 L 219.203125 344.242188 C 220.488281 343.089844 222.019531 341.007812 222.574219 337.390625 C 222.574219 337.394531 222.582031 337.402344 222.597656 337.421875 C 222.605469 337.425781 222.617188 337.445312 222.628906 337.453125 C 222.640625 337.464844 222.652344 337.480469 222.667969 337.492188 C 222.6875 337.511719 222.707031 337.535156 222.730469 337.558594 C 222.75 337.582031 222.773438 337.597656 222.796875 337.625 C 222.824219 337.660156 222.863281 337.695312 222.902344 337.734375 C 222.914062 337.742188 222.914062 337.746094 222.921875 337.753906 C 223.03125 337.859375 223.160156 337.996094 223.316406 338.152344 C 223.339844 338.179688 223.371094 338.207031 223.390625 338.230469 C 223.460938 338.304688 223.53125 338.371094 223.605469 338.449219 C 223.609375 338.453125 223.621094 338.460938 223.628906 338.464844 C 226.539062 341.429688 235.3125 350.3125 247.246094 362.386719 L 256.488281 362.386719 L 232.042969 337.101562 C 232.371094 335.925781 232.5 334.648438 232.371094 333.335938 Z M 122.492188 192.164062 C 122.453125 192.171875 122.414062 192.179688 122.371094 192.179688 C 122.382812 192.179688 122.398438 192.183594 122.398438 192.183594 C 122.640625 192.164062 123.917969 192.101562 124.316406 192.085938 C 124.5625 192.078125 124.820312 191.984375 125.070312 191.757812 C 126.054688 190.894531 124.511719 188.664062 124.511719 188.664062 L 118.453125 179.558594 C 118.453125 179.558594 117.753906 178.445312 116.617188 178.578125 C 116.34375 178.609375 114.875 178.660156 114.753906 178.667969 C 114.734375 178.667969 114.722656 178.671875 114.707031 178.671875 C 115.804688 178.589844 116.488281 179.660156 116.488281 179.660156 L 122.542969 188.765625 C 122.542969 188.765625 124.082031 190.996094 123.105469 191.859375 C 122.90625 192.039062 122.703125 192.128906 122.507812 192.164062 C 122.445312 192.15625 121.898438 192.144531 121.503906 191.75 C 119.640625 189.847656 113.570312 182.5625 113.570312 182.5625 C 113.410156 182.242188 111.769531 180.847656 113.640625 179.175781 C 113.808594 179.03125 113.960938 178.921875 114.113281 178.828125 C 113.871094 178.933594 113.617188 179.09375 113.347656 179.332031 C 111.46875 181.007812 112.980469 182.519531 113.140625 182.84375 L 120.828125 191.277344 C 120.828125 191.277344 121.601562 192.320312 122.492188 192.164062 Z M 215.003906 336.328125 C 214.679688 333.074219 211.992188 330.671875 209.011719 330.96875 C 206.019531 331.265625 203.859375 334.144531 204.183594 337.402344 C 204.507812 340.664062 207.191406 343.0625 210.179688 342.769531 C 213.164062 342.46875 215.324219 339.589844 215.003906 336.328125 Z M 124.957031 197.40625 C 124.9375 197.40625 124.914062 197.40625 124.914062 197.40625 C 124.820312 197.394531 124.746094 197.398438 124.671875 197.398438 C 124.765625 197.398438 124.863281 197.398438 124.957031 197.40625 Z M 124.109375 197.957031 C 124.148438 197.964844 124.191406 197.976562 124.214844 197.980469 C 124.230469 197.984375 124.25 197.992188 124.265625 197.992188 C 124.210938 197.980469 124.160156 197.96875 124.109375 197.957031 Z M 120.710938 202.59375 C 120.722656 202.59375 120.734375 202.601562 120.746094 202.601562 C 120.707031 202.59375 120.671875 202.585938 120.636719 202.578125 C 120.660156 202.582031 120.691406 202.585938 120.710938 202.59375 Z M 126.1875 197.808594 C 125.910156 197.792969 123.679688 197.695312 122.578125 197.828125 C 122.59375 197.828125 122.621094 197.832031 122.640625 197.832031 C 122.574219 197.835938 122.503906 197.832031 122.441406 197.84375 C 119.3125 198.152344 116.75 201.3125 115.535156 205.734375 C 114.5625 207.625 114.027344 210.171875 114.179688 212.917969 C 114.332031 215.691406 115.148438 218.121094 116.339844 219.800781 C 117.429688 222.460938 119.015625 224.488281 120.847656 225.496094 C 119.410156 224.507812 118.15625 222.882812 117.199219 220.828125 C 117.574219 221.1875 117.964844 221.488281 118.375 221.710938 C 116.328125 220.3125 114.792969 217.070312 114.582031 213.164062 C 114.28125 207.726562 116.652344 203.058594 119.871094 202.742188 C 120.621094 202.664062 121.339844 202.835938 122.015625 203.199219 C 124.082031 204.578125 125.632812 207.832031 125.847656 211.765625 C 126.144531 217.199219 123.777344 221.867188 120.554688 222.1875 C 121.226562 222.117188 121.527344 222.15625 122.554688 222.050781 C 125.757812 221.734375 128.113281 217.097656 127.820312 211.695312 C 127.542969 206.625 125.03125 202.683594 122.082031 202.476562 C 121.886719 202.460938 120.335938 202.398438 119.574219 202.488281 C 119.574219 202.488281 119.601562 202.488281 119.609375 202.492188 C 119.566406 202.492188 119.523438 202.492188 119.476562 202.496094 C 118.527344 202.589844 117.652344 203.070312 116.898438 203.828125 C 118.269531 200.625 120.449219 198.449219 123.015625 198.191406 C 124.082031 198.082031 125.121094 198.328125 126.097656 198.847656 C 129.066406 200.835938 131.304688 205.515625 131.617188 211.179688 C 132.042969 219.003906 128.625 225.71875 123.992188 226.179688 C 124.957031 226.082031 125.394531 226.132812 126.875 225.988281 C 131.488281 225.53125 134.878906 218.855469 134.449219 211.074219 C 134.050781 203.78125 130.4375 198.113281 126.1875 197.808594 Z M 120.710938 202.429688 C 120.699219 202.425781 120.683594 202.421875 120.667969 202.421875 C 120.613281 202.421875 120.5625 202.421875 120.511719 202.421875 C 120.582031 202.421875 120.644531 202.421875 120.710938 202.429688 " fill-opacity="1" fill-rule="nonzero"/></g></svg>